<svg width="363" height="200" viewBox="0 0 363 200" fill="none" xmlns="http://www.w3.org/2000/svg">
<rect x="1" y="1" width="361" height="198" stroke="#E6EBF1" stroke-width="2"/>
<path d="M80 20L80 160" stroke="#C3C7CD"/>
<path d="M195 20L195 160" stroke="#E3E5E8"/>
<path d="M323 20L323 160" stroke="#E3E5E8"/>
<path d="M343 150L70 150" stroke="#C3C7CD"/>
<path d="M343 97L70 97" stroke="#E3E5E8"/>
<path d="M343 45L70 45" stroke="#E3E5E8"/>
<path d="M24.213 150.168C23.5316 150.168 22.855 150.079 22.183 149.902C21.5203 149.715 20.951 149.454 20.475 149.118L21.371 147.382C21.7443 147.653 22.1736 147.867 22.659 148.026C23.1536 148.185 23.653 148.264 24.157 148.264C24.7263 148.264 25.1743 148.152 25.501 147.928C25.8276 147.704 25.991 147.391 25.991 146.99C25.991 146.738 25.9256 146.514 25.795 146.318C25.6643 146.122 25.431 145.973 25.095 145.87C24.7683 145.767 24.3063 145.716 23.709 145.716H21.203L21.707 140.2H27.685V142.02H22.519L23.695 140.984L23.345 144.918L22.169 143.882H24.241C25.2116 143.882 25.991 144.017 26.579 144.288C27.1763 144.549 27.6103 144.909 27.881 145.366C28.1516 145.823 28.287 146.341 28.287 146.92C28.287 147.499 28.1423 148.035 27.853 148.53C27.5636 149.015 27.1156 149.412 26.509 149.72C25.9116 150.019 25.1463 150.168 24.213 150.168ZM33.4071 150.168C32.6045 150.168 31.8858 149.972 31.2511 149.58C30.6165 149.179 30.1171 148.6 29.7531 147.844C29.3891 147.088 29.2071 146.173 29.2071 145.1C29.2071 144.027 29.3891 143.112 29.7531 142.356C30.1171 141.6 30.6165 141.026 31.2511 140.634C31.8858 140.233 32.6045 140.032 33.4071 140.032C34.2191 140.032 34.9378 140.233 35.5631 140.634C36.1978 141.026 36.6971 141.6 37.0611 142.356C37.4251 143.112 37.6071 144.027 37.6071 145.1C37.6071 146.173 37.4251 147.088 37.0611 147.844C36.6971 148.6 36.1978 149.179 35.5631 149.58C34.9378 149.972 34.2191 150.168 33.4071 150.168ZM33.4071 148.25C33.7898 148.25 34.1211 148.143 34.4011 147.928C34.6905 147.713 34.9145 147.373 35.0731 146.906C35.2411 146.439 35.3251 145.837 35.3251 145.1C35.3251 144.363 35.2411 143.761 35.0731 143.294C34.9145 142.827 34.6905 142.487 34.4011 142.272C34.1211 142.057 33.7898 141.95 33.4071 141.95C33.0338 141.95 32.7025 142.057 32.4131 142.272C32.1331 142.487 31.9091 142.827 31.7411 143.294C31.5825 143.761 31.5031 144.363 31.5031 145.1C31.5031 145.837 31.5825 146.439 31.7411 146.906C31.9091 147.373 32.1331 147.713 32.4131 147.928C32.7025 148.143 33.0338 148.25 33.4071 148.25ZM42.9091 150.168C42.1064 150.168 41.3878 149.972 40.7531 149.58C40.1184 149.179 39.6191 148.6 39.2551 147.844C38.8911 147.088 38.7091 146.173 38.7091 145.1C38.7091 144.027 38.8911 143.112 39.2551 142.356C39.6191 141.6 40.1184 141.026 40.7531 140.634C41.3878 140.233 42.1064 140.032 42.9091 140.032C43.7211 140.032 44.4398 140.233 45.0651 140.634C45.6998 141.026 46.1991 141.6 46.5631 142.356C46.9271 143.112 47.1091 144.027 47.1091 145.1C47.1091 146.173 46.9271 147.088 46.5631 147.844C46.1991 148.6 45.6998 149.179 45.0651 149.58C44.4398 149.972 43.7211 150.168 42.9091 150.168ZM42.9091 148.25C43.2918 148.25 43.6231 148.143 43.9031 147.928C44.1924 147.713 44.4164 147.373 44.5751 146.906C44.7431 146.439 44.8271 145.837 44.8271 145.1C44.8271 144.363 44.7431 143.761 44.5751 143.294C44.4164 142.827 44.1924 142.487 43.9031 142.272C43.6231 142.057 43.2918 141.95 42.9091 141.95C42.5358 141.95 42.2044 142.057 41.9151 142.272C41.6351 142.487 41.4111 142.827 41.2431 143.294C41.0844 143.761 41.0051 144.363 41.0051 145.1C41.0051 145.837 41.0844 146.439 41.2431 146.906C41.4111 147.373 41.6351 147.713 41.9151 147.928C42.2044 148.143 42.5358 148.25 42.9091 148.25Z" fill="#1F3B60"/>
<path d="M12.0814 97V88.04L13.0614 89.02H10.1214V87.2H14.3494V97H12.0814ZM24.2167 97.168C23.414 97.168 22.6954 96.972 22.0607 96.58C21.426 96.1787 20.9267 95.6 20.5627 94.844C20.1987 94.088 20.0167 93.1733 20.0167 92.1C20.0167 91.0267 20.1987 90.112 20.5627 89.356C20.9267 88.6 21.426 88.026 22.0607 87.634C22.6954 87.2327 23.414 87.032 24.2167 87.032C25.0287 87.032 25.7474 87.2327 26.3727 87.634C27.0074 88.026 27.5067 88.6 27.8707 89.356C28.2347 90.112 28.4167 91.0267 28.4167 92.1C28.4167 93.1733 28.2347 94.088 27.8707 94.844C27.5067 95.6 27.0074 96.1787 26.3727 96.58C25.7474 96.972 25.0287 97.168 24.2167 97.168ZM24.2167 95.25C24.5994 95.25 24.9307 95.1427 25.2107 94.928C25.5 94.7133 25.724 94.3727 25.8827 93.906C26.0507 93.4393 26.1347 92.8373 26.1347 92.1C26.1347 91.3627 26.0507 90.7607 25.8827 90.294C25.724 89.8273 25.5 89.4867 25.2107 89.272C24.9307 89.0573 24.5994 88.95 24.2167 88.95C23.8434 88.95 23.512 89.0573 23.2227 89.272C22.9427 89.4867 22.7187 89.8273 22.5507 90.294C22.392 90.7607 22.3127 91.3627 22.3127 92.1C22.3127 92.8373 22.392 93.4393 22.5507 93.906C22.7187 94.3727 22.9427 94.7133 23.2227 94.928C23.512 95.1427 23.8434 95.25 24.2167 95.25ZM33.7187 97.168C32.916 97.168 32.1973 96.972 31.5627 96.58C30.928 96.1787 30.4287 95.6 30.0647 94.844C29.7007 94.088 29.5187 93.1733 29.5187 92.1C29.5187 91.0267 29.7007 90.112 30.0647 89.356C30.4287 88.6 30.928 88.026 31.5627 87.634C32.1973 87.2327 32.916 87.032 33.7187 87.032C34.5307 87.032 35.2493 87.2327 35.8747 87.634C36.5093 88.026 37.0087 88.6 37.3727 89.356C37.7367 90.112 37.9187 91.0267 37.9187 92.1C37.9187 93.1733 37.7367 94.088 37.3727 94.844C37.0087 95.6 36.5093 96.1787 35.8747 96.58C35.2493 96.972 34.5307 97.168 33.7187 97.168ZM33.7187 95.25C34.1013 95.25 34.4327 95.1427 34.7127 94.928C35.002 94.7133 35.226 94.3727 35.3847 93.906C35.5527 93.4393 35.6367 92.8373 35.6367 92.1C35.6367 91.3627 35.5527 90.7607 35.3847 90.294C35.226 89.8273 35.002 89.4867 34.7127 89.272C34.4327 89.0573 34.1013 88.95 33.7187 88.95C33.3453 88.95 33.014 89.0573 32.7247 89.272C32.4447 89.4867 32.2207 89.8273 32.0527 90.294C31.894 90.7607 31.8147 91.3627 31.8147 92.1C31.8147 92.8373 31.894 93.4393 32.0527 93.906C32.2207 94.3727 32.4447 94.7133 32.7247 94.928C33.014 95.1427 33.3453 95.25 33.7187 95.25ZM43.2206 97.168C42.4179 97.168 41.6993 96.972 41.0646 96.58C40.4299 96.1787 39.9306 95.6 39.5666 94.844C39.2026 94.088 39.0206 93.1733 39.0206 92.1C39.0206 91.0267 39.2026 90.112 39.5666 89.356C39.9306 88.6 40.4299 88.026 41.0646 87.634C41.6993 87.2327 42.4179 87.032 43.2206 87.032C44.0326 87.032 44.7513 87.2327 45.3766 87.634C46.0113 88.026 46.5106 88.6 46.8746 89.356C47.2386 90.112 47.4206 91.0267 47.4206 92.1C47.4206 93.1733 47.2386 94.088 46.8746 94.844C46.5106 95.6 46.0113 96.1787 45.3766 96.58C44.7513 96.972 44.0326 97.168 43.2206 97.168ZM43.2206 95.25C43.6033 95.25 43.9346 95.1427 44.2146 94.928C44.5039 94.7133 44.7279 94.3727 44.8866 93.906C45.0546 93.4393 45.1386 92.8373 45.1386 92.1C45.1386 91.3627 45.0546 90.7607 44.8866 90.294C44.7279 89.8273 44.5039 89.4867 44.2146 89.272C43.9346 89.0573 43.6033 88.95 43.2206 88.95C42.8473 88.95 42.5159 89.0573 42.2266 89.272C41.9466 89.4867 41.7226 89.8273 41.5546 90.294C41.3959 90.7607 41.3166 91.3627 41.3166 92.1C41.3166 92.8373 41.3959 93.4393 41.5546 93.906C41.7226 94.3727 41.9466 94.7133 42.2266 94.928C42.5159 95.1427 42.8473 95.25 43.2206 95.25Z" fill="#1F3B60"/>
<path d="M13.1693 45V36.04L14.1493 37.02H11.2093V35.2H15.4373V45H13.1693ZM24.4366 45.168C23.7553 45.168 23.0786 45.0793 22.4066 44.902C21.7439 44.7153 21.1746 44.454 20.6986 44.118L21.5946 42.382C21.9679 42.6527 22.3973 42.8673 22.8826 43.026C23.3773 43.1847 23.8766 43.264 24.3806 43.264C24.9499 43.264 25.3979 43.152 25.7246 42.928C26.0513 42.704 26.2146 42.3913 26.2146 41.99C26.2146 41.738 26.1493 41.514 26.0186 41.318C25.8879 41.122 25.6546 40.9727 25.3186 40.87C24.9919 40.7673 24.5299 40.716 23.9326 40.716H21.4266L21.9306 35.2H27.9086V37.02H22.7426L23.9186 35.984L23.5686 39.918L22.3926 38.882H24.4646C25.4353 38.882 26.2146 39.0173 26.8026 39.288C27.3999 39.5493 27.8339 39.9087 28.1046 40.366C28.3753 40.8233 28.5106 41.3413 28.5106 41.92C28.5106 42.4987 28.3659 43.0353 28.0766 43.53C27.7873 44.0153 27.3393 44.412 26.7326 44.72C26.1353 45.0187 25.3699 45.168 24.4366 45.168ZM33.6308 45.168C32.8281 45.168 32.1094 44.972 31.4748 44.58C30.8401 44.1787 30.3408 43.6 29.9768 42.844C29.6128 42.088 29.4308 41.1733 29.4308 40.1C29.4308 39.0267 29.6128 38.112 29.9768 37.356C30.3408 36.6 30.8401 36.026 31.4748 35.634C32.1094 35.2327 32.8281 35.032 33.6308 35.032C34.4428 35.032 35.1614 35.2327 35.7868 35.634C36.4214 36.026 36.9208 36.6 37.2848 37.356C37.6488 38.112 37.8308 39.0267 37.8308 40.1C37.8308 41.1733 37.6488 42.088 37.2848 42.844C36.9208 43.6 36.4214 44.1787 35.7868 44.58C35.1614 44.972 34.4428 45.168 33.6308 45.168ZM33.6308 43.25C34.0134 43.25 34.3448 43.1427 34.6248 42.928C34.9141 42.7133 35.1381 42.3727 35.2968 41.906C35.4648 41.4393 35.5488 40.8373 35.5488 40.1C35.5488 39.3627 35.4648 38.7607 35.2968 38.294C35.1381 37.8273 34.9141 37.4867 34.6248 37.272C34.3448 37.0573 34.0134 36.95 33.6308 36.95C33.2574 36.95 32.9261 37.0573 32.6368 37.272C32.3568 37.4867 32.1328 37.8273 31.9648 38.294C31.8061 38.7607 31.7268 39.3627 31.7268 40.1C31.7268 40.8373 31.8061 41.4393 31.9648 41.906C32.1328 42.3727 32.3568 42.7133 32.6368 42.928C32.9261 43.1427 33.2574 43.25 33.6308 43.25ZM43.1327 45.168C42.3301 45.168 41.6114 44.972 40.9767 44.58C40.3421 44.1787 39.8427 43.6 39.4787 42.844C39.1147 42.088 38.9327 41.1733 38.9327 40.1C38.9327 39.0267 39.1147 38.112 39.4787 37.356C39.8427 36.6 40.3421 36.026 40.9767 35.634C41.6114 35.2327 42.3301 35.032 43.1327 35.032C43.9447 35.032 44.6634 35.2327 45.2887 35.634C45.9234 36.026 46.4227 36.6 46.7867 37.356C47.1507 38.112 47.3327 39.0267 47.3327 40.1C47.3327 41.1733 47.1507 42.088 46.7867 42.844C46.4227 43.6 45.9234 44.1787 45.2887 44.58C44.6634 44.972 43.9447 45.168 43.1327 45.168ZM43.1327 43.25C43.5154 43.25 43.8467 43.1427 44.1267 42.928C44.4161 42.7133 44.6401 42.3727 44.7987 41.906C44.9667 41.4393 45.0507 40.8373 45.0507 40.1C45.0507 39.3627 44.9667 38.7607 44.7987 38.294C44.6401 37.8273 44.4161 37.4867 44.1267 37.272C43.8467 37.0573 43.5154 36.95 43.1327 36.95C42.7594 36.95 42.4281 37.0573 42.1387 37.272C41.8587 37.4867 41.6347 37.8273 41.4667 38.294C41.3081 38.7607 41.2287 39.3627 41.2287 40.1C41.2287 40.8373 41.3081 41.4393 41.4667 41.906C41.6347 42.3727 41.8587 42.7133 42.1387 42.928C42.4281 43.1427 42.7594 43.25 43.1327 43.25Z" fill="#1F3B60"/>
<path d="M61.6608 179V178.184L65.0808 174.884C65.3848 174.596 65.6088 174.344 65.7528 174.128C65.9048 173.904 66.0048 173.7 66.0528 173.516C66.1088 173.324 66.1368 173.14 66.1368 172.964C66.1368 172.532 65.9848 172.192 65.6808 171.944C65.3768 171.696 64.9328 171.572 64.3488 171.572C63.9008 171.572 63.4968 171.648 63.1368 171.8C62.7768 171.944 62.4648 172.172 62.2008 172.484L61.3848 171.776C61.7048 171.368 62.1328 171.056 62.6688 170.84C63.2128 170.616 63.8088 170.504 64.4568 170.504C65.0408 170.504 65.5488 170.6 65.9808 170.792C66.4128 170.976 66.7448 171.244 66.9768 171.596C67.2168 171.948 67.3368 172.364 67.3368 172.844C67.3368 173.116 67.3008 173.384 67.2288 173.648C67.1568 173.912 67.0208 174.192 66.8208 174.488C66.6208 174.784 66.3328 175.116 65.9568 175.484L62.9088 178.424L62.6208 177.956H67.6968V179H61.6608ZM72.1037 179.096C71.4477 179.096 70.8597 178.928 70.3397 178.592C69.8277 178.256 69.4197 177.768 69.1157 177.128C68.8197 176.488 68.6717 175.712 68.6717 174.8C68.6717 173.888 68.8197 173.112 69.1157 172.472C69.4197 171.832 69.8277 171.344 70.3397 171.008C70.8597 170.672 71.4477 170.504 72.1037 170.504C72.7517 170.504 73.3357 170.672 73.8557 171.008C74.3757 171.344 74.7837 171.832 75.0797 172.472C75.3757 173.112 75.5237 173.888 75.5237 174.8C75.5237 175.712 75.3757 176.488 75.0797 177.128C74.7837 177.768 74.3757 178.256 73.8557 178.592C73.3357 178.928 72.7517 179.096 72.1037 179.096ZM72.1037 178.028C72.5437 178.028 72.9277 177.908 73.2557 177.668C73.5917 177.428 73.8517 177.068 74.0357 176.588C74.2277 176.108 74.3237 175.512 74.3237 174.8C74.3237 174.088 74.2277 173.492 74.0357 173.012C73.8517 172.532 73.5917 172.172 73.2557 171.932C72.9277 171.692 72.5437 171.572 72.1037 171.572C71.6637 171.572 71.2757 171.692 70.9397 171.932C70.6037 172.172 70.3397 172.532 70.1477 173.012C69.9637 173.492 69.8717 174.088 69.8717 174.8C69.8717 175.512 69.9637 176.108 70.1477 176.588C70.3397 177.068 70.6037 177.428 70.9397 177.668C71.2757 177.908 71.6637 178.028 72.1037 178.028ZM76.5436 179V178.184L79.9636 174.884C80.2676 174.596 80.4916 174.344 80.6356 174.128C80.7876 173.904 80.8876 173.7 80.9356 173.516C80.9916 173.324 81.0196 173.14 81.0196 172.964C81.0196 172.532 80.8676 172.192 80.5636 171.944C80.2596 171.696 79.8156 171.572 79.2316 171.572C78.7836 171.572 78.3796 171.648 78.0196 171.8C77.6596 171.944 77.3476 172.172 77.0836 172.484L76.2676 171.776C76.5876 171.368 77.0156 171.056 77.5516 170.84C78.0956 170.616 78.6916 170.504 79.3396 170.504C79.9236 170.504 80.4316 170.6 80.8636 170.792C81.2956 170.976 81.6276 171.244 81.8596 171.596C82.0996 171.948 82.2196 172.364 82.2196 172.844C82.2196 173.116 82.1836 173.384 82.1116 173.648C82.0396 173.912 81.9036 174.192 81.7036 174.488C81.5036 174.784 81.2156 175.116 80.8396 175.484L77.7916 178.424L77.5036 177.956H82.5796V179H76.5436ZM83.2119 176.936V176.096L87.5079 170.6H88.8039L84.5439 176.096L83.9319 175.904H90.6399V176.936H83.2119ZM87.8799 179V176.936L87.9159 175.904V174.08H89.0439V179H87.8799Z" fill="#1F3B60"/>
<path d="M305.86 179V178.184L309.28 174.884C309.584 174.596 309.808 174.344 309.952 174.128C310.104 173.904 310.204 173.7 310.252 173.516C310.308 173.324 310.336 173.14 310.336 172.964C310.336 172.532 310.184 172.192 309.88 171.944C309.576 171.696 309.132 171.572 308.548 171.572C308.1 171.572 307.696 171.648 307.336 171.8C306.976 171.944 306.664 172.172 306.4 172.484L305.584 171.776C305.904 171.368 306.332 171.056 306.868 170.84C307.412 170.616 308.008 170.504 308.656 170.504C309.24 170.504 309.748 170.6 310.18 170.792C310.612 170.976 310.944 171.244 311.176 171.596C311.416 171.948 311.536 172.364 311.536 172.844C311.536 173.116 311.5 173.384 311.428 173.648C311.356 173.912 311.22 174.192 311.02 174.488C310.82 174.784 310.532 175.116 310.156 175.484L307.108 178.424L306.82 177.956H311.896V179H305.86ZM316.303 179.096C315.647 179.096 315.059 178.928 314.539 178.592C314.027 178.256 313.619 177.768 313.315 177.128C313.019 176.488 312.871 175.712 312.871 174.8C312.871 173.888 313.019 173.112 313.315 172.472C313.619 171.832 314.027 171.344 314.539 171.008C315.059 170.672 315.647 170.504 316.303 170.504C316.951 170.504 317.535 170.672 318.055 171.008C318.575 171.344 318.983 171.832 319.279 172.472C319.575 173.112 319.723 173.888 319.723 174.8C319.723 175.712 319.575 176.488 319.279 177.128C318.983 177.768 318.575 178.256 318.055 178.592C317.535 178.928 316.951 179.096 316.303 179.096ZM316.303 178.028C316.743 178.028 317.127 177.908 317.455 177.668C317.791 177.428 318.051 177.068 318.235 176.588C318.427 176.108 318.523 175.512 318.523 174.8C318.523 174.088 318.427 173.492 318.235 173.012C318.051 172.532 317.791 172.172 317.455 171.932C317.127 171.692 316.743 171.572 316.303 171.572C315.863 171.572 315.475 171.692 315.139 171.932C314.803 172.172 314.539 172.532 314.347 173.012C314.163 173.492 314.071 174.088 314.071 174.8C314.071 175.512 314.163 176.108 314.347 176.588C314.539 177.068 314.803 177.428 315.139 177.668C315.475 177.908 315.863 178.028 316.303 178.028ZM320.743 179V178.184L324.163 174.884C324.467 174.596 324.691 174.344 324.835 174.128C324.987 173.904 325.087 173.7 325.135 173.516C325.191 173.324 325.219 173.14 325.219 172.964C325.219 172.532 325.067 172.192 324.763 171.944C324.459 171.696 324.015 171.572 323.431 171.572C322.983 171.572 322.579 171.648 322.219 171.8C321.859 171.944 321.547 172.172 321.283 172.484L320.467 171.776C320.787 171.368 321.215 171.056 321.751 170.84C322.295 170.616 322.891 170.504 323.539 170.504C324.123 170.504 324.631 170.6 325.063 170.792C325.495 170.976 325.827 171.244 326.059 171.596C326.299 171.948 326.419 172.364 326.419 172.844C326.419 173.116 326.383 173.384 326.311 173.648C326.239 173.912 326.103 174.192 325.903 174.488C325.703 174.784 325.415 175.116 325.039 175.484L321.991 178.424L321.703 177.956H326.779V179H320.743ZM331.282 179.096C330.538 179.096 329.902 178.932 329.374 178.604C328.846 178.276 328.442 177.804 328.162 177.188C327.89 176.564 327.754 175.804 327.754 174.908C327.754 173.956 327.922 173.152 328.258 172.496C328.594 171.84 329.062 171.344 329.662 171.008C330.262 170.672 330.95 170.504 331.726 170.504C332.126 170.504 332.506 170.544 332.866 170.624C333.234 170.704 333.55 170.828 333.814 170.996L333.358 171.932C333.142 171.78 332.894 171.676 332.614 171.62C332.342 171.564 332.054 171.536 331.75 171.536C330.894 171.536 330.214 171.804 329.71 172.34C329.206 172.868 328.954 173.656 328.954 174.704C328.954 174.872 328.962 175.072 328.978 175.304C328.994 175.536 329.034 175.764 329.098 175.988L328.69 175.58C328.81 175.212 328.998 174.904 329.254 174.656C329.518 174.4 329.83 174.212 330.19 174.092C330.558 173.964 330.954 173.9 331.378 173.9C331.938 173.9 332.434 174.004 332.866 174.212C333.298 174.42 333.638 174.716 333.886 175.1C334.134 175.476 334.258 175.924 334.258 176.444C334.258 176.98 334.126 177.448 333.862 177.848C333.598 178.248 333.242 178.556 332.794 178.772C332.346 178.988 331.842 179.096 331.282 179.096ZM331.234 178.124C331.602 178.124 331.922 178.056 332.194 177.92C332.474 177.784 332.694 177.596 332.854 177.356C333.014 177.108 333.094 176.82 333.094 176.492C333.094 175.996 332.922 175.604 332.578 175.316C332.234 175.02 331.766 174.872 331.174 174.872C330.79 174.872 330.454 174.944 330.166 175.088C329.878 175.232 329.65 175.428 329.482 175.676C329.322 175.916 329.242 176.192 329.242 176.504C329.242 176.792 329.318 177.06 329.47 177.308C329.622 177.548 329.846 177.744 330.142 177.896C330.438 178.048 330.802 178.124 331.234 178.124Z" fill="#1F3B60"/>
<path d="M180.612 179V178.184L184.032 174.884C184.336 174.596 184.56 174.344 184.704 174.128C184.856 173.904 184.956 173.7 185.004 173.516C185.06 173.324 185.088 173.14 185.088 172.964C185.088 172.532 184.936 172.192 184.632 171.944C184.328 171.696 183.884 171.572 183.3 171.572C182.852 171.572 182.448 171.648 182.088 171.8C181.728 171.944 181.416 172.172 181.152 172.484L180.336 171.776C180.656 171.368 181.084 171.056 181.62 170.84C182.164 170.616 182.76 170.504 183.408 170.504C183.992 170.504 184.5 170.6 184.932 170.792C185.364 170.976 185.696 171.244 185.928 171.596C186.168 171.948 186.288 172.364 186.288 172.844C186.288 173.116 186.252 173.384 186.18 173.648C186.108 173.912 185.972 174.192 185.772 174.488C185.572 174.784 185.284 175.116 184.908 175.484L181.86 178.424L181.572 177.956H186.648V179H180.612ZM191.055 179.096C190.399 179.096 189.811 178.928 189.291 178.592C188.779 178.256 188.371 177.768 188.067 177.128C187.771 176.488 187.623 175.712 187.623 174.8C187.623 173.888 187.771 173.112 188.067 172.472C188.371 171.832 188.779 171.344 189.291 171.008C189.811 170.672 190.399 170.504 191.055 170.504C191.703 170.504 192.287 170.672 192.807 171.008C193.327 171.344 193.735 171.832 194.031 172.472C194.327 173.112 194.475 173.888 194.475 174.8C194.475 175.712 194.327 176.488 194.031 177.128C193.735 177.768 193.327 178.256 192.807 178.592C192.287 178.928 191.703 179.096 191.055 179.096ZM191.055 178.028C191.495 178.028 191.879 177.908 192.207 177.668C192.543 177.428 192.803 177.068 192.987 176.588C193.179 176.108 193.275 175.512 193.275 174.8C193.275 174.088 193.179 173.492 192.987 173.012C192.803 172.532 192.543 172.172 192.207 171.932C191.879 171.692 191.495 171.572 191.055 171.572C190.615 171.572 190.227 171.692 189.891 171.932C189.555 172.172 189.291 172.532 189.099 173.012C188.915 173.492 188.823 174.088 188.823 174.8C188.823 175.512 188.915 176.108 189.099 176.588C189.291 177.068 189.555 177.428 189.891 177.668C190.227 177.908 190.615 178.028 191.055 178.028ZM195.495 179V178.184L198.915 174.884C199.219 174.596 199.443 174.344 199.587 174.128C199.739 173.904 199.839 173.7 199.887 173.516C199.943 173.324 199.971 173.14 199.971 172.964C199.971 172.532 199.819 172.192 199.515 171.944C199.211 171.696 198.767 171.572 198.183 171.572C197.735 171.572 197.331 171.648 196.971 171.8C196.611 171.944 196.299 172.172 196.035 172.484L195.219 171.776C195.539 171.368 195.967 171.056 196.503 170.84C197.047 170.616 197.643 170.504 198.291 170.504C198.875 170.504 199.383 170.6 199.815 170.792C200.247 170.976 200.579 171.244 200.811 171.596C201.051 171.948 201.171 172.364 201.171 172.844C201.171 173.116 201.135 173.384 201.063 173.648C200.991 173.912 200.855 174.192 200.655 174.488C200.455 174.784 200.167 175.116 199.791 175.484L196.743 178.424L196.455 177.956H201.531V179H195.495ZM205.229 179.096C204.637 179.096 204.061 179.004 203.501 178.82C202.949 178.636 202.497 178.388 202.145 178.076L202.697 177.128C202.977 177.392 203.341 177.608 203.789 177.776C204.237 177.944 204.713 178.028 205.217 178.028C205.857 178.028 206.349 177.892 206.693 177.62C207.037 177.348 207.209 176.984 207.209 176.528C207.209 176.216 207.133 175.944 206.981 175.712C206.829 175.48 206.565 175.304 206.189 175.184C205.821 175.056 205.313 174.992 204.665 174.992H202.757L203.201 170.6H207.941V171.644H203.645L204.269 171.056L203.921 174.524L203.297 173.948H204.917C205.757 173.948 206.433 174.056 206.945 174.272C207.457 174.488 207.829 174.788 208.061 175.172C208.293 175.548 208.409 175.984 208.409 176.48C208.409 176.96 208.293 177.4 208.061 177.8C207.829 178.192 207.477 178.508 207.005 178.748C206.541 178.98 205.949 179.096 205.229 179.096Z" fill="#1F3B60"/>
<path d="M50.9851 45V39.4H52.0571L54.4411 43.352H53.8731L56.2171 39.4H57.2891L57.2971 45H56.0811L56.0731 41.264H56.3051L54.4251 44.408H53.8491L51.9291 41.264H52.2011V45H50.9851ZM58.2562 45V44.16L60.4162 42.12C60.5869 41.9653 60.7122 41.8267 60.7922 41.704C60.8722 41.5813 60.9255 41.4693 60.9522 41.368C60.9842 41.2667 61.0002 41.1733 61.0002 41.088C61.0002 40.864 60.9229 40.6933 60.7682 40.576C60.6189 40.4533 60.3975 40.392 60.1042 40.392C59.8695 40.392 59.6509 40.4373 59.4482 40.528C59.2509 40.6187 59.0829 40.76 58.9442 40.952L58.0002 40.344C58.2135 40.024 58.5122 39.7707 58.8962 39.584C59.2802 39.3973 59.7229 39.304 60.2242 39.304C60.6402 39.304 61.0029 39.3733 61.3122 39.512C61.6269 39.6453 61.8695 39.8347 62.0402 40.08C62.2162 40.3253 62.3042 40.6187 62.3042 40.96C62.3042 41.1413 62.2802 41.3227 62.2322 41.504C62.1895 41.68 62.0989 41.8667 61.9602 42.064C61.8269 42.2613 61.6295 42.4827 61.3682 42.728L59.5762 44.416L59.3282 43.944H62.4882V45H58.2562Z" fill="#1F3B60"/>
<path d="M50.9851 150V144.4H52.0571L54.4411 148.352H53.8731L56.2171 144.4H57.2891L57.2971 150H56.0811L56.0731 146.264H56.3051L54.4251 149.408H53.8491L51.9291 146.264H52.2011V150H50.9851ZM58.2562 150V149.16L60.4162 147.12C60.5869 146.965 60.7122 146.827 60.7922 146.704C60.8722 146.581 60.9255 146.469 60.9522 146.368C60.9842 146.267 61.0002 146.173 61.0002 146.088C61.0002 145.864 60.9229 145.693 60.7682 145.576C60.6189 145.453 60.3975 145.392 60.1042 145.392C59.8695 145.392 59.6509 145.437 59.4482 145.528C59.2509 145.619 59.0829 145.76 58.9442 145.952L58.0002 145.344C58.2135 145.024 58.5122 144.771 58.8962 144.584C59.2802 144.397 59.7229 144.304 60.2242 144.304C60.6402 144.304 61.0029 144.373 61.3122 144.512C61.6269 144.645 61.8695 144.835 62.0402 145.08C62.2162 145.325 62.3042 145.619 62.3042 145.96C62.3042 146.141 62.2802 146.323 62.2322 146.504C62.1895 146.68 62.0989 146.867 61.9602 147.064C61.8269 147.261 61.6295 147.483 61.3682 147.728L59.5762 149.416L59.3282 148.944H62.4882V150H58.2562Z" fill="#1F3B60"/>
<path d="M50.9851 97V91.4H52.0571L54.4411 95.352H53.8731L56.2171 91.4H57.2891L57.2971 97H56.0811L56.0731 93.264H56.3051L54.4251 96.408H53.8491L51.9291 93.264H52.2011V97H50.9851ZM58.2562 97V96.16L60.4162 94.12C60.5869 93.9653 60.7122 93.8267 60.7922 93.704C60.8722 93.5813 60.9255 93.4693 60.9522 93.368C60.9842 93.2667 61.0002 93.1733 61.0002 93.088C61.0002 92.864 60.9229 92.6933 60.7682 92.576C60.6189 92.4533 60.3975 92.392 60.1042 92.392C59.8695 92.392 59.6509 92.4373 59.4482 92.528C59.2509 92.6187 59.0829 92.76 58.9442 92.952L58.0002 92.344C58.2135 92.024 58.5122 91.7707 58.8962 91.584C59.2802 91.3973 59.7229 91.304 60.2242 91.304C60.6402 91.304 61.0029 91.3733 61.3122 91.512C61.6269 91.6453 61.8695 91.8347 62.0402 92.08C62.2162 92.3253 62.3042 92.6187 62.3042 92.96C62.3042 93.1413 62.2802 93.3227 62.2322 93.504C62.1895 93.68 62.0989 93.8667 61.9602 94.064C61.8269 94.2613 61.6295 94.4827 61.3682 94.728L59.5762 96.416L59.3282 95.944H62.4882V97H58.2562Z" fill="#1F3B60"/>
<path d="M94.2139 179V173.4H98.0139L98.0059 174.28H94.9899L95.2299 174.032L95.2379 179H94.2139ZM97.601 179.056C97.4197 179.056 97.265 178.995 97.137 178.872C97.009 178.744 96.945 178.584 96.945 178.392C96.945 178.189 97.009 178.029 97.137 177.912C97.265 177.789 97.4197 177.728 97.601 177.728C97.7823 177.728 97.937 177.789 98.065 177.912C98.193 178.029 98.257 178.189 98.257 178.392C98.257 178.584 98.193 178.744 98.065 178.872C97.937 178.995 97.7823 179.056 97.601 179.056Z" fill="#1F3B60"/>
<path d="M338.214 179V173.4H342.014L342.006 174.28H338.99L339.23 174.032L339.238 179H338.214ZM341.601 179.056C341.42 179.056 341.265 178.995 341.137 178.872C341.009 178.744 340.945 178.584 340.945 178.392C340.945 178.189 341.009 178.029 341.137 177.912C341.265 177.789 341.42 177.728 341.601 177.728C341.782 177.728 341.937 177.789 342.065 177.912C342.193 178.029 342.257 178.189 342.257 178.392C342.257 178.584 342.193 178.744 342.065 178.872C341.937 178.995 341.782 179.056 341.601 179.056Z" fill="#1F3B60"/>
<path d="M212.214 179V173.4H216.014L216.006 174.28H212.99L213.23 174.032L213.238 179H212.214ZM215.601 179.056C215.42 179.056 215.265 178.995 215.137 178.872C215.009 178.744 214.945 178.584 214.945 178.392C214.945 178.189 215.009 178.029 215.137 177.912C215.265 177.789 215.42 177.728 215.601 177.728C215.782 177.728 215.937 177.789 216.065 177.912C216.193 178.029 216.257 178.189 216.257 178.392C216.257 178.584 216.193 178.744 216.065 178.872C215.937 178.995 215.782 179.056 215.601 179.056Z" fill="#1F3B60"/>
<path d="M80 150C85.6667 144.167 105.8 130.4 141 122C185 111.5 186.5 102.5 201.5 91.5C216.5 80.5 233.5 67 267 64.5C293.8 62.5 314.667 52.5 323 45" stroke="#4092FF" stroke-width="2"/>
<rect x="77" y="147" width="6" height="6" fill="#4092FF"/>
<rect x="192" y="94" width="6" height="6" fill="#4092FF"/>
<rect x="320" y="42" width="6" height="6" fill="#4092FF"/>
</svg>
