<svg width="41" height="34" viewBox="0 0 41 34" fill="none" xmlns="http://www.w3.org/2000/svg">
<path fill-rule="evenodd" clip-rule="evenodd" d="M17 0.196833C17.9806 0.392949 17.9805 0.393355 17.9804 0.39378L17.9802 0.394727L17.9798 0.396965L17.9786 0.402815L17.975 0.419965C17.972 0.433802 17.9679 0.452424 17.9627 0.475684C17.9521 0.522203 17.9367 0.587288 17.9156 0.669764C17.8734 0.8347 17.8085 1.0693 17.7144 1.36415C17.5262 1.95376 17.221 2.78507 16.7469 3.78244C15.7983 5.77783 14.1731 8.43797 11.4571 11.1539C9.35159 13.2595 7.27961 14.7094 5.5249 15.6968H41V17.6968H5.68869C7.35559 18.6708 9.3293 20.1119 11.4571 22.2397C14.4161 25.1987 16.0471 27.8597 16.9406 29.812C17.3868 30.787 17.6476 31.5823 17.7981 32.1457C17.8734 32.4274 17.921 32.6509 17.9505 32.8099C17.9653 32.8894 17.9755 32.9527 17.9823 32.999C17.9857 33.0222 17.9883 33.0412 17.9902 33.0558L17.9925 33.0744L17.9933 33.0812L17.9936 33.084L17.9938 33.0853C17.9938 33.0858 17.9939 33.0864 17 33.1968C16.0061 33.3073 16.0062 33.3078 16.0062 33.3083L16.0063 33.3092L16.0037 33.2907C16.0004 33.2684 15.9942 33.2294 15.9841 33.1746C15.9637 33.065 15.9274 32.8921 15.8659 32.662C15.743 32.202 15.5195 31.5129 15.1219 30.6442C14.3279 28.909 12.8339 26.445 10.0429 23.6539C7.25185 20.8629 4.78783 19.369 3.05263 18.5749C2.18396 18.1774 1.49482 17.9538 1.03485 17.8309C0.804783 17.7694 0.631844 17.7331 0.522247 17.7128C0.483532 17.7056 0.452717 17.7004 0.430073 17.6968H0V15.6968H0.388596C0.413166 15.6909 0.44278 15.6836 0.477264 15.6748C0.606274 15.6418 0.803314 15.5876 1.05924 15.5059C1.5712 15.3425 2.31801 15.0695 3.22689 14.6374C5.04401 13.7736 7.50886 12.2738 10.0429 9.73973C12.5769 7.20569 14.0767 4.74084 14.9406 2.92372C15.3727 2.01485 15.6457 1.26803 15.8091 0.756074C15.8907 0.500146 15.945 0.303107 15.978 0.174097C15.9945 0.109601 16.0057 0.0621365 16.0123 0.0328495L16.019 0.00270782L16.0196 0C16.0195 0.000348851 16.0194 0.000716791 17 0.196833Z" fill="white"/>
</svg>
