<svg width="41" height="34" viewBox="0 0 41 34" fill="none" xmlns="http://www.w3.org/2000/svg">
<path fill-rule="evenodd" clip-rule="evenodd" d="M24 0.196833C23.0194 0.392949 23.0195 0.393355 23.0196 0.39378L23.0198 0.394727L23.0202 0.396965L23.0214 0.402815L23.025 0.419965C23.028 0.433802 23.0321 0.452424 23.0373 0.475684C23.0479 0.522203 23.0633 0.587288 23.0844 0.669764C23.1266 0.8347 23.1915 1.0693 23.2856 1.36415C23.4738 1.95376 23.779 2.78507 24.2531 3.78244C25.2017 5.77783 26.8269 8.43797 29.5429 11.1539C31.6484 13.2595 33.7204 14.7094 35.4751 15.6968H0V17.6968H35.3113C33.6444 18.6708 31.6707 20.1119 29.5429 22.2397C26.5839 25.1987 24.9529 27.8597 24.0594 29.812C23.6132 30.787 23.3524 31.5823 23.2019 32.1457C23.1266 32.4274 23.079 32.6509 23.0495 32.8099C23.0347 32.8894 23.0245 32.9527 23.0177 32.999C23.0143 33.0222 23.0117 33.0412 23.0098 33.0558L23.0075 33.0744L23.0067 33.0812L23.0064 33.084L23.0062 33.0853C23.0062 33.0858 23.0061 33.0864 24 33.1968C24.9939 33.3073 24.9938 33.3078 24.9938 33.3083L24.9937 33.3092L24.9963 33.2907C24.9996 33.2684 25.0058 33.2294 25.0159 33.1746C25.0363 33.065 25.0726 32.8921 25.1341 32.662C25.257 32.202 25.4805 31.5129 25.8781 30.6442C26.6721 28.909 28.1661 26.445 30.9571 23.6539C33.7481 20.8629 36.2122 19.369 37.9474 18.5749C38.816 18.1774 39.5052 17.9538 39.9652 17.8309C40.1952 17.7694 40.3682 17.7331 40.4778 17.7128C40.5165 17.7056 40.5473 17.7004 40.5699 17.6968H41V15.6968H40.6114C40.5868 15.6909 40.5572 15.6836 40.5227 15.6748C40.3937 15.6418 40.1967 15.5876 39.9408 15.5059C39.4288 15.3425 38.682 15.0695 37.7731 14.6374C35.956 13.7736 33.4911 12.2738 30.9571 9.73973C28.4231 7.20569 26.9233 4.74084 26.0594 2.92372C25.6273 2.01485 25.3543 1.26803 25.1909 0.756074C25.1093 0.500146 25.055 0.303107 25.022 0.174097C25.0055 0.109601 24.9943 0.0621365 24.9877 0.0328495L24.981 0.00270782L24.9804 0C24.9805 0.000348851 24.9806 0.000716791 24 0.196833Z" fill="white"/>
</svg>
