<svg width="27" height="27" viewBox="0 0 27 27" fill="none" xmlns="http://www.w3.org/2000/svg">
<path d="M19.0192 8.08118C19.0246 8.08118 19.0318 8.08118 19.0389 8.08118C19.2263 8.08118 19.4002 8.13944 19.5427 8.23984L19.54 8.23805C19.644 8.32859 19.7139 8.45588 19.731 8.5993V8.60199C19.7489 8.71136 19.7588 8.83685 19.7588 8.96504C19.7588 9.02331 19.757 9.08068 19.7525 9.13805V9.12998C19.5508 11.2536 18.6759 16.4035 18.2313 18.7808C18.043 19.7875 17.6728 20.1245 17.3142 20.1568C16.5353 20.2294 15.9436 19.6422 15.1888 19.1474C14.0074 18.372 13.3395 17.8897 12.193 17.1341C10.8672 16.2619 11.7269 15.7805 12.4817 14.997C12.6798 14.7908 16.1139 11.6668 16.1812 11.3836C16.1848 11.3665 16.1866 11.3477 16.1866 11.328C16.1866 11.2581 16.1606 11.1944 16.1184 11.146C16.0718 11.1155 16.0135 11.0985 15.9526 11.0985C15.9123 11.0985 15.8737 11.1066 15.8378 11.12L15.8396 11.1191C15.7213 11.146 13.8341 12.3932 10.1779 14.8608C9.77899 15.1754 9.2752 15.3744 8.72659 15.3977H8.72122C7.94402 15.3036 7.23855 15.1306 6.56892 14.8841L6.63526 14.9056C5.79442 14.6313 5.12659 14.487 5.18396 14.0226C5.21444 13.7812 5.54731 13.5341 6.18257 13.2813C10.0957 11.5763 12.7052 10.4525 14.011 9.90986C15.4515 9.14522 17.1215 8.51594 18.8776 8.10807L19.0183 8.08028L19.0192 8.08118ZM13.4686 0C6.02659 0.0179283 0 6.05528 0 13.5C0 20.9555 6.04363 27 13.5 27C20.9564 27 27 20.9564 27 13.5C27 6.05528 20.9734 0.0179283 13.5332 0H13.5314C13.5105 0 13.4895 0 13.4686 0Z" fill="#4092FF"/>
</svg>
