<svg width="27" height="28" viewBox="0 0 27 28" fill="none" xmlns="http://www.w3.org/2000/svg">
<path fill-rule="evenodd" clip-rule="evenodd" d="M18.6219 1.00611C20.2685 1.68464 21.7625 2.68603 23.0158 3.9512C24.9166 5.83817 26.2125 8.24854 26.738 10.8749C27.2634 13.5013 26.9948 16.2247 25.9663 18.6978C24.9378 21.1709 23.196 23.2816 20.9631 24.7608C18.7302 26.24 16.1073 27.0207 13.4289 27.0032H13.5266C11.2956 26.9993 9.10047 26.4388 7.14033 25.3722L0 27.1844L1.81227 20.2072C0.635869 18.1624 0.0165596 15.8447 0.0161902 13.4856C0.0158207 11.1266 0.634404 8.80869 1.81016 6.7635C2.98592 4.71831 4.67769 3.0174 6.71651 1.83064C8.75534 0.643874 11.0698 0.0128069 13.4289 0.000461905C15.2097 -0.0143581 16.9754 0.327582 18.6219 1.00611ZM7.72025 23.1068C9.44504 24.1401 11.4183 24.6851 13.4289 24.6835C16.3978 24.6787 19.2437 23.4972 21.343 21.3979C23.4424 19.2985 24.6239 16.4526 24.6287 13.4837C24.6347 12.012 24.3478 10.5539 23.7846 9.19421C23.2215 7.83454 22.3933 6.60054 21.3485 5.56412C19.3995 3.63295 16.8095 2.48438 14.0698 2.33632C11.3301 2.18826 8.6314 3.05102 6.48567 4.76089C4.33995 6.47077 2.89652 8.9088 2.42925 11.6124C1.96198 14.316 2.50338 17.0971 3.95074 19.4279L4.20446 19.8448L3.08085 23.9767L7.32155 22.8712L7.72025 23.1068ZM18.9981 15.9874C19.2818 16.1258 19.5186 16.2414 19.6268 16.2926C19.6679 16.3121 19.7071 16.3305 19.7446 16.3481C20.0212 16.4778 20.1994 16.5615 20.2792 16.6732C20.3577 17.213 20.2888 17.7641 20.0799 18.268C19.8288 18.676 19.4965 19.0281 19.1037 19.3025C18.7109 19.5768 18.266 19.7675 17.7964 19.8628C17.0894 19.987 16.3632 19.9436 15.6761 19.7359C15.644 19.7252 15.6114 19.7144 15.5782 19.7033C15.1052 19.546 14.5183 19.3509 13.7732 19.0291C11.4398 17.8659 9.44798 16.1176 7.99206 13.9548C7.19866 12.9376 6.72556 11.7075 6.63286 10.4209C6.62519 9.89677 6.72586 9.37674 6.92856 8.89337C7.13127 8.41 7.43163 7.97371 7.81083 7.61185C8.04576 7.3584 8.37164 7.20849 8.71697 7.19503H9.44187C9.46252 7.19503 9.48375 7.19406 9.50554 7.19306C9.69416 7.18442 9.92497 7.17386 10.1849 7.77495C10.2606 7.94996 10.3684 8.19163 10.4863 8.45614C10.8203 9.2051 11.236 10.1372 11.236 10.2578C11.281 10.351 11.3043 10.4532 11.3043 10.5568C11.3043 10.6603 11.281 10.7625 11.236 10.8558C11.152 11.0564 11.0423 11.2452 10.9098 11.4176L10.9098 11.4176C10.7286 11.617 10.5473 11.8163 10.4024 11.9975C10.3886 12.0147 10.3744 12.0319 10.36 12.0492C10.2232 12.2144 10.077 12.3909 10.2574 12.6862C10.7359 13.5552 11.3474 14.344 12.0697 15.024C12.8675 15.7304 13.7809 16.2944 14.7699 16.6913C15.1143 16.945 15.2955 16.9269 15.4948 16.6913C15.5095 16.674 15.5264 16.654 15.5454 16.6316C15.7852 16.3488 16.3458 15.6874 16.5641 15.3683C16.7997 15.024 17.0171 15.0603 17.3252 15.1871C17.5365 15.2741 18.3788 15.6851 18.9981 15.9874Z" fill="#4092FF"/>
</svg>
