<svg width="393" height="486" viewBox="0 0 393 486" fill="none" xmlns="http://www.w3.org/2000/svg">
<g clip-path="url(#clip0_2_1043)">
<rect width="393" height="486" fill="#F7F8FB"/>
<path d="M196 497H-5.06329L-13 199C-13 199 -4.77843 206.344 5.07806 223.21C6.85015 226.242 7.83726 230.189 8.76381 234.543L16.1013 257.103C22.0795 266.651 34.334 273.109 42.116 284.835C44.7813 288.85 46.5087 293.744 48.213 298.852L56.6667 318.288C63.2624 327.778 77.3068 333.364 84.8861 343.818C88.0606 348.197 89.1059 353.413 90.076 358.764L96.3502 376.832C103.214 385.941 119.675 391.815 127.215 401.482C135.331 411.886 135.493 428.766 144.411 439.777C152.083 449.248 169.202 454.095 177.481 463.987C186.376 474.614 186.39 485.918 196 497Z" fill="#DDECFF"/>
<path d="M115.765 129.269L140.149 114.019L146.639 124.929L150.059 122.813L162.079 142.745L158.248 145.411L163.761 154.092L158.178 157.977L161.536 163.309L176.384 152.977L174.71 150.571L183.648 144.351L195.737 161.723L207.615 153.457L215.571 164.89L193.567 180.202L190.984 176.491L176.196 186.781L179.481 191.503L159.259 205.576L155.457 200.112L152.458 202.199L139.088 182.986L148.975 176.105L142.374 166.11L138.632 168.715L133.295 159.778L131.068 161.329L117.719 140.69L121.491 138.066L115.765 129.269Z" fill="#EFF0F2"/>
<path d="M159.259 205.575L183.283 188.857L189.813 198.24L192.605 196.297L205.463 215.029L202.79 216.889L209.169 226.245L203.825 229.965L206.883 234.36L212.228 230.64L228.684 254.096L224.381 257.224L227.047 261.054L208.352 275.739L205.337 271.533L200.525 275.323L186.597 255.309L195.476 249.13L189.215 240.132L185.414 242.777L178.945 233.483L176.451 235.219L163.267 216.273L165.583 214.661L159.259 205.575Z" fill="#EFF0F2"/>
<path d="M264.441 344.355L286.594 323.831L295.163 333.15L297.647 330.828L314.462 348.538L312.215 350.631L319.804 358.877L315.054 363.769L319.624 368.381L324.65 363.305L345.346 383.547L337.249 392.179L333.091 388.24L324.297 397.445L328.293 401.541L320.151 410.071L302.198 392.417L310.242 384.087L302.52 376.46L298.685 380.113L290.518 371.899L288.298 373.974L271.783 356.118L273.845 354.191L264.441 344.355Z" fill="#EFF0F2"/>
<path d="M209.307 274.897L232.127 257.21L239.483 266.768L242.21 264.606L256.132 282.774L253.981 284.623L260.547 293.806L255.551 297.9L259.278 302.622L264.572 298.321L282.969 320.515L278.762 323.97L282.112 327.898L264.388 344.42L261.18 340.57L256.745 344.141L240.466 324.485L248.459 317.16L242.142 308.905L237.579 312.61L230.566 303.165L228.072 304.901L214.518 286.565L216.835 284.954L209.307 274.897Z" fill="#EFF0F2"/>
<path d="M152.457 202.198L136.41 179.075L126.995 185.053L124.988 182.043L71.6021 214.963L76.4898 222.492L79.5236 220.646L82.4452 225.224L69.9162 233.061L81.0954 250.581L142.936 211.381L141.365 209.124L152.457 202.198Z" fill="#EFF0F2"/>
<path d="M200.445 275.338L184.398 252.214L173.921 259.769L171.79 256.581L121.172 293.921L126.059 301.451L129.093 299.603L132.18 304.42L121.607 312.66L133.319 329.808L191.816 285.485L190.246 283.229L200.445 275.338Z" fill="#EFF0F2"/>
<path d="M256.657 344.205L237.891 321.608L228.239 329.779L226.354 327.387L179.436 368.017L184.596 375.18L187.507 373.154L191.038 378.102L180.242 387.29L192.667 403.942L248.543 354.964L246.747 352.511L256.657 344.205Z" fill="#EFF0F2"/>
<path d="M298.742 389.075L319.514 409.398L310.082 418.86L312.26 420.987L268.693 465.799L262.116 459.91L264.437 457.231L259.891 453.196L249.614 462.96L234.368 448.843L287.184 396.007L289.434 398.051L298.742 389.075Z" fill="#EFF0F2"/>
<path d="M94.89 98.5671L107.741 123.88L95.955 129.788L97.3241 132.55L41.0322 160.209L37.2613 152.063L40.4403 150.478L38.1209 145.567L24.8147 151.999L15.9376 133.209L81.3792 101.408L82.9667 104.552L94.89 98.5671Z" fill="#EFF0F2"/>
<path d="M222.916 223.073L212.19 230.714L228.593 254.031L240.306 245.527L242.31 248.407L282.906 217.82L268.766 201.744L261.341 207.352L265.206 212.905L261.137 215.736L253.76 205.135L255.749 203.75L251.327 197.396L220.705 219.896L222.916 223.073Z" fill="#EFF0F2"/>
<path d="M273.733 288.748L263.575 297.08L274.857 310.693L276.829 308.968L284.356 318.01L293.775 310.265L295.808 312.553L344.33 271.538L329.366 256.126L322.271 262.153L326.407 267.508L322.484 270.538L314.59 260.316L316.508 258.834L311.776 252.707L271.366 285.685L273.733 288.748Z" fill="#EFF0F2"/>
<path d="M356.12 373.759L346.127 384.243L324.599 363.299L334.474 353.738L331.88 350.96L360.122 322.021L374.321 337.977L367.92 344.689L362.872 340.185L359.572 343.883L368.788 352.51L370.64 350.536L376.326 356.194L358.305 375.769L356.12 373.759Z" fill="#EFF0F2"/>
<path d="M135.638 116.759L133.121 111.899L148.959 103.761L135.243 76.4399L119.13 84.2587L116.048 78.118L121.79 75.2236L119.356 70.3944L122.368 68.9596L105.4 33.4311L97.5748 37.0686L99.2088 40.6039L92.8886 43.6359L85.6949 28.9212L67.4832 37.867L89.1605 84.4928L93.1482 82.7701L98.0655 93.3205L102.779 91.0981L105.581 96.7729L96.2147 101.175L107.738 123.877L111.504 121.957L115.743 129.238L135.638 116.759Z" fill="#EFF0F2"/>
<path d="M94.89 98.5671L107.741 123.88L95.955 129.788L97.3241 132.55L41.0322 160.209L37.2613 152.063L40.4403 150.478L38.1209 145.567L24.8147 151.999L15.9376 133.208L81.3792 101.408L82.9667 104.552L94.89 98.5671Z" fill="#EDF4FF"/>
<path d="M115.917 129.496L140.301 114.246L146.792 125.156L150.211 123.04L162.231 142.972L158.4 145.638L163.913 154.319L158.33 158.204L161.688 163.536L176.536 153.204L174.862 150.798L183.8 144.578L195.889 161.95L207.768 153.684L215.723 165.117L193.719 180.429L191.136 176.718L176.348 187.008L179.633 191.73L159.411 205.803L155.609 200.339L152.61 202.426L139.24 183.213L149.128 176.332L142.526 166.337L138.785 168.942L133.447 160.006L131.22 161.556L117.871 140.917L121.643 138.293L115.917 129.496Z" stroke="#C3C7CD" stroke-width="2"/>
<path d="M159.412 205.802L183.436 189.084L189.966 198.467L192.757 196.524L205.616 215.256L202.943 217.116L209.322 226.472L203.977 230.192L207.035 234.587L212.381 230.867L228.836 254.324L224.533 257.451L227.199 261.281L208.504 275.966L205.49 271.76L200.678 275.55L186.75 255.536L195.629 249.357L189.367 240.359L185.566 243.004L179.098 233.71L176.603 235.446L163.419 216.5L165.736 214.888L159.412 205.802Z" stroke="#C3C7CD" stroke-width="2"/>
<path d="M264.594 344.582L286.746 324.058L295.315 333.377L297.8 331.055L314.615 348.765L312.368 350.858L319.956 359.104L315.207 363.996L319.776 368.608L324.803 363.532L345.499 383.774L337.402 392.406L333.244 388.468L324.45 397.672L328.445 401.768L320.304 410.299L302.351 392.644L310.394 384.314L302.672 376.687L298.838 380.34L290.67 372.126L288.45 374.201L271.935 356.345L273.997 354.418L264.594 344.582Z" stroke="#C3C7CD" stroke-width="2"/>
<path d="M209.46 275.124L232.279 257.437L239.636 266.995L242.363 264.833L256.284 283.001L254.133 284.85L260.7 294.033L255.703 298.127L259.431 302.85L264.724 298.548L283.121 320.742L278.915 324.197L282.264 328.125L264.54 344.647L261.332 340.797L256.898 344.368L240.618 324.712L248.611 317.387L242.294 309.132L237.732 312.837L230.719 303.392L228.224 305.128L214.671 286.792L216.987 285.181L209.46 275.124Z" stroke="#C3C7CD" stroke-width="2"/>
<path d="M152.609 202.425L136.562 179.302L127.147 185.28L125.141 182.27L71.7545 215.19L76.6422 222.719L79.676 220.873L82.5977 225.451L70.0687 233.288L81.2478 250.808L143.089 211.608L141.518 209.351L152.609 202.425Z" stroke="#C3C7CD" stroke-width="2"/>
<path d="M200.597 275.565L184.55 252.441L174.073 259.996L171.942 256.808L121.324 294.148L126.211 301.678L129.245 299.83L132.332 304.647L121.759 312.887L133.472 330.035L191.969 285.712L190.399 283.456L200.597 275.565Z" stroke="#C3C7CD" stroke-width="2"/>
<path d="M256.81 344.432L238.043 321.835L228.391 330.006L226.507 327.614L179.588 368.244L184.749 375.407L187.659 373.381L191.19 378.329L180.394 387.517L192.82 404.169L248.695 355.191L246.9 352.738L256.81 344.432Z" stroke="#C3C7CD" stroke-width="2"/>
<path d="M298.894 389.303L319.667 409.625L310.234 419.087L312.413 421.214L268.845 466.026L262.268 460.137L264.59 457.458L260.044 453.423L249.766 463.187L234.521 449.07L287.337 396.234L289.586 398.278L298.894 389.303Z" stroke="#C3C7CD" stroke-width="2"/>
<path d="M95.0423 98.7941L107.893 124.107L96.1072 130.015L97.4763 132.777L41.1844 160.436L37.4136 152.29L40.5925 150.705L38.2731 145.794L24.967 152.226L16.0898 133.436L81.5314 101.635L83.1189 104.779L95.0423 98.7941Z" stroke="#C3C7CD" stroke-width="2"/>
<path d="M223.068 223.3L212.342 230.941L228.745 254.258L240.458 245.754L242.463 248.634L283.059 218.047L268.918 201.971L261.494 207.579L265.358 213.132L261.289 215.963L253.912 205.362L255.901 203.977L251.48 197.623L220.857 220.123L223.068 223.3Z" stroke="#C3C7CD" stroke-width="2"/>
<path d="M273.885 288.975L263.728 297.307L275.009 310.92L276.981 309.195L284.508 318.237L293.928 310.493L295.96 312.78L344.482 271.765L329.519 256.353L322.424 262.38L326.559 267.735L322.637 270.765L314.742 260.543L316.66 259.061L311.928 252.934L271.519 285.912L273.885 288.975Z" stroke="#C3C7CD" stroke-width="2"/>
<path d="M356.272 373.986L346.28 384.47L324.752 363.526L334.627 353.965L332.032 351.187L360.274 322.248L374.474 338.204L368.073 344.916L363.025 340.412L359.725 344.11L368.941 352.737L370.792 350.763L376.478 356.421L358.457 375.996L356.272 373.986Z" stroke="#C3C7CD" stroke-width="2"/>
<path d="M135.79 116.986L133.273 112.126L149.112 103.988L135.395 76.6669L119.283 84.4857L116.2 78.345L121.942 75.4506L119.508 70.6214L122.52 69.1866L105.553 33.6581L97.7271 37.2956L99.3611 40.8309L93.0409 43.8629L85.8472 29.1483L67.6355 38.094L89.3128 84.7198L93.3006 82.9971L98.2179 93.5475L102.931 91.3251L105.734 96.9999L96.3671 101.402L107.89 124.104L111.656 122.184L115.896 129.465L135.79 116.986Z" stroke="#C3C7CD" stroke-width="2"/>
<path d="M95.0424 98.7941L107.893 124.107L96.1074 130.015L97.4764 132.777L41.1845 160.436L37.4137 152.29L40.5926 150.705L38.2732 145.794L24.9671 152.226L16.0899 133.436L81.5315 101.635L83.119 104.779L95.0424 98.7941Z" stroke="#4092FF" stroke-width="2"/>
<path d="M63.9621 132.692C63.9621 133.284 64.0101 133.732 64.1061 134.036C64.2181 134.324 64.4421 134.516 64.7781 134.612C65.1301 134.708 65.6581 134.764 66.3621 134.78V135.332H57.9621V134.78C58.6821 134.764 59.2101 134.708 59.5461 134.612C59.8981 134.516 60.1221 134.324 60.2181 134.036C60.3141 133.732 60.3621 133.284 60.3621 132.692V126.908L58.1541 128.3L57.6501 127.532L62.9781 124.052H64.1301C64.0661 124.356 64.0181 124.66 63.9861 124.964C63.9701 125.268 63.9621 125.572 63.9621 125.876V132.692Z" fill="#4092FF"/>
<path d="M105.269 66.1318H105.821L105.581 70.3318H95.693V69.7798C95.837 69.6998 96.037 69.5798 96.293 69.4198C96.565 69.2438 96.829 69.0678 97.085 68.8918C97.981 68.2518 98.685 67.6358 99.197 67.0438C99.725 66.4518 100.117 65.8998 100.373 65.3878C100.629 64.8598 100.789 64.3958 100.853 63.9958C100.933 63.5798 100.973 63.2518 100.973 63.0118C100.973 62.5478 100.837 62.1718 100.565 61.8838C100.309 61.5958 99.877 61.4518 99.269 61.4518C98.741 61.4518 98.253 61.5878 97.805 61.8598C97.357 62.1158 96.861 62.5478 96.317 63.1558L95.861 62.7718C96.405 61.5878 97.133 60.6518 98.045 59.9638C98.957 59.2758 100.069 58.9318 101.381 58.9318C102.517 58.9318 103.373 59.1958 103.949 59.7238C104.525 60.2358 104.813 60.9558 104.813 61.8838C104.813 63.0838 104.405 64.1238 103.589 65.0038C102.773 65.8678 101.693 66.6598 100.349 67.3798V67.4518H102.749C103.661 67.4518 104.293 67.3398 104.645 67.1158C104.997 66.8758 105.205 66.5478 105.269 66.1318Z" fill="#8A929C"/>
<path d="M109.69 212.3V212.372C110.202 212.372 110.762 212.452 111.37 212.612C111.978 212.756 112.554 212.996 113.098 213.332C113.642 213.668 114.09 214.116 114.442 214.676C114.794 215.22 114.97 215.884 114.97 216.668C114.97 217.484 114.77 218.228 114.37 218.9C113.97 219.572 113.434 220.14 112.762 220.604C112.09 221.084 111.33 221.452 110.482 221.708C109.634 221.964 108.754 222.092 107.842 222.092C107.426 222.092 106.946 222.052 106.402 221.972C105.858 221.908 105.322 221.788 104.794 221.612C104.266 221.436 103.794 221.188 103.378 220.868C103.506 219.812 103.858 218.908 104.434 218.156C104.962 219.1 105.53 219.82 106.138 220.316C106.746 220.812 107.402 221.06 108.106 221.06C108.794 221.06 109.354 220.876 109.786 220.508C110.234 220.14 110.57 219.66 110.794 219.068C111.018 218.492 111.13 217.892 111.13 217.268C111.13 215.956 110.658 215.028 109.714 214.484C108.77 213.924 107.49 213.86 105.874 214.292V213.38C106.946 212.996 107.786 212.572 108.394 212.108C109.002 211.628 109.434 211.14 109.69 210.644C109.946 210.148 110.074 209.692 110.074 209.276C110.074 208.7 109.922 208.252 109.618 207.932C109.314 207.612 108.842 207.452 108.202 207.452C107.658 207.452 107.09 207.604 106.498 207.908C105.906 208.212 105.306 208.708 104.698 209.396L104.242 209.012C104.594 208.26 105.026 207.58 105.538 206.972C106.066 206.348 106.698 205.852 107.434 205.484C108.17 205.116 109.026 204.932 110.002 204.932C111.138 204.932 112.05 205.196 112.738 205.724C113.442 206.236 113.794 206.972 113.794 207.932C113.794 208.46 113.658 208.996 113.386 209.54C113.13 210.084 112.698 210.596 112.09 211.076C111.498 211.556 110.698 211.964 109.69 212.3Z" fill="#8A929C"/>
<path d="M165.363 279.172L164.955 282.412H157.563L157.395 283.852C160.131 284.3 162.195 285.052 163.587 286.108C164.979 287.164 165.675 288.492 165.675 290.092C165.675 291.276 165.371 292.316 164.763 293.212C164.171 294.124 163.363 294.828 162.339 295.324C161.331 295.836 160.211 296.092 158.979 296.092C158.371 296.092 157.667 296.004 156.867 295.828C156.083 295.652 155.387 295.332 154.779 294.868C154.907 293.812 155.259 292.908 155.835 292.156C156.331 293.036 156.883 293.74 157.491 294.268C158.115 294.796 158.771 295.06 159.459 295.06C160.467 295.06 161.211 294.748 161.691 294.124C162.187 293.5 162.435 292.772 162.435 291.94C162.435 290.596 161.899 289.524 160.827 288.724C159.755 287.924 158.115 287.38 155.907 287.092L156.939 279.292H163.539C163.923 279.292 164.259 279.284 164.547 279.268C164.851 279.252 165.123 279.22 165.363 279.172Z" fill="#8A929C"/>
<path d="M190.715 211.492C186.699 212.996 184.691 216.124 184.691 220.876C184.691 221.98 184.787 222.972 184.979 223.852C185.171 224.716 185.435 225.404 185.771 225.916C186.123 226.412 186.523 226.66 186.971 226.66C187.563 226.66 188.043 226.236 188.411 225.388C188.795 224.54 188.987 223.46 188.987 222.148C188.987 220.868 188.803 219.924 188.435 219.316C188.067 218.692 187.555 218.38 186.899 218.38C186.739 218.38 186.563 218.396 186.371 218.428C186.195 218.46 186.035 218.516 185.891 218.596L185.507 218.212C185.875 217.828 186.291 217.524 186.755 217.3C187.235 217.06 187.803 216.94 188.459 216.94C189.691 216.94 190.707 217.356 191.507 218.188C192.307 219.004 192.707 220.172 192.707 221.692C192.707 222.732 192.523 223.628 192.155 224.38C191.787 225.132 191.299 225.756 190.691 226.252C190.083 226.732 189.427 227.092 188.723 227.332C188.019 227.572 187.331 227.692 186.659 227.692C185.667 227.692 184.723 227.444 183.827 226.948C182.947 226.436 182.227 225.684 181.667 224.692C181.123 223.7 180.851 222.484 180.851 221.044C180.851 219.684 181.107 218.436 181.619 217.3C182.147 216.148 182.859 215.132 183.755 214.252C184.667 213.356 185.715 212.612 186.899 212.02C188.099 211.428 189.371 211.012 190.715 210.772V211.492Z" fill="#8A929C"/>
<path d="M249.355 222.292V222.844C249.051 223.436 248.699 224.212 248.299 225.172C247.899 226.116 247.483 227.172 247.051 228.34C246.619 229.492 246.211 230.684 245.827 231.916C245.443 233.148 245.107 234.348 244.819 235.516C244.531 236.7 244.331 237.772 244.219 238.732H239.899C240.715 237.132 241.555 235.596 242.419 234.124C243.299 232.668 244.131 231.228 244.915 229.804C245.699 228.364 246.363 226.9 246.907 225.412H241.075C240.307 225.412 239.787 225.572 239.515 225.892C239.259 226.196 239.099 226.676 239.035 227.332H238.483V222.292H249.355Z" fill="#8A929C"/>
<path d="M221.264 363.132C221.264 364.172 221 365.036 220.472 365.724C219.96 366.396 219.272 366.892 218.408 367.212C217.544 367.532 216.6 367.692 215.576 367.692C214.648 367.692 213.784 367.564 212.984 367.308C212.184 367.036 211.536 366.628 211.04 366.084C210.544 365.54 210.296 364.86 210.296 364.044C210.296 363.372 210.456 362.796 210.776 362.316C211.112 361.82 211.536 361.412 212.048 361.092C212.56 360.772 213.112 360.532 213.704 360.372C212.664 359.684 211.832 358.98 211.208 358.26C210.6 357.54 210.296 356.644 210.296 355.572C210.296 354.58 210.544 353.748 211.04 353.076C211.552 352.404 212.24 351.892 213.104 351.54C213.984 351.188 214.96 351.012 216.032 351.012C216.896 351.012 217.728 351.132 218.528 351.372C219.328 351.612 219.984 351.996 220.496 352.524C221.008 353.036 221.264 353.716 221.264 354.564C221.264 355.268 221.088 355.884 220.736 356.412C220.384 356.94 219.928 357.388 219.368 357.756C218.824 358.108 218.264 358.372 217.688 358.548C218.568 359.124 219.264 359.644 219.776 360.108C220.304 360.556 220.68 361.012 220.904 361.476C221.144 361.94 221.264 362.492 221.264 363.132ZM213.776 354.516C213.776 354.932 213.864 355.3 214.04 355.62C214.216 355.94 214.52 356.276 214.952 356.628C215.384 356.964 215.976 357.388 216.728 357.9C217.144 357.436 217.448 356.916 217.64 356.34C217.832 355.764 217.928 355.196 217.928 354.636C217.928 353.948 217.776 353.348 217.472 352.836C217.168 352.308 216.656 352.044 215.936 352.044C215.2 352.044 214.656 352.3 214.304 352.812C213.952 353.324 213.776 353.892 213.776 354.516ZM213.776 363.876C213.776 364.708 213.944 365.38 214.28 365.892C214.616 366.404 215.072 366.66 215.648 366.66C216.208 366.66 216.68 366.436 217.064 365.988C217.464 365.54 217.664 365.012 217.664 364.404C217.664 363.668 217.368 363.044 216.776 362.532C216.184 362.004 215.496 361.492 214.712 360.996C214.296 361.492 214.032 362.02 213.92 362.58C213.824 363.124 213.776 363.556 213.776 363.876Z" fill="#8A929C"/>
<path d="M234.675 298.612C236.227 298.1 237.451 297.332 238.347 296.308C239.243 295.3 239.883 294.132 240.267 292.804C240.667 291.476 240.867 290.076 240.867 288.604C240.867 286.892 240.651 285.524 240.219 284.5C239.803 283.476 239.267 282.964 238.611 282.964C238.211 282.964 237.851 283.172 237.531 283.588C237.227 283.988 236.987 284.54 236.811 285.244C236.651 285.932 236.571 286.716 236.571 287.596C236.571 288.876 236.755 289.884 237.123 290.62C237.491 291.356 238.011 291.724 238.683 291.724C238.827 291.724 238.987 291.708 239.163 291.676C239.355 291.628 239.523 291.572 239.667 291.508L240.051 291.892C239.699 292.276 239.283 292.588 238.803 292.828C238.323 293.052 237.779 293.164 237.171 293.164C236.323 293.164 235.571 292.932 234.915 292.468C234.275 291.988 233.771 291.348 233.403 290.548C233.035 289.732 232.851 288.82 232.851 287.812C232.851 286.772 233.035 285.884 233.403 285.148C233.771 284.396 234.259 283.788 234.867 283.324C235.475 282.844 236.139 282.492 236.859 282.268C237.579 282.044 238.283 281.932 238.971 281.932C239.947 281.932 240.867 282.164 241.731 282.628C242.611 283.092 243.323 283.804 243.867 284.764C244.427 285.708 244.707 286.916 244.707 288.388C244.707 289.732 244.459 291.012 243.963 292.228C243.483 293.428 242.787 294.516 241.875 295.492C240.979 296.484 239.923 297.308 238.707 297.964C237.491 298.636 236.147 299.092 234.675 299.332V298.612Z" fill="#8A929C"/>
<path d="M296.575 287.692C296.575 288.284 296.623 288.732 296.719 289.036C296.831 289.324 297.055 289.516 297.391 289.612C297.743 289.708 298.271 289.764 298.975 289.78V290.332H290.575V289.78C291.295 289.764 291.823 289.708 292.159 289.612C292.511 289.516 292.735 289.324 292.831 289.036C292.927 288.732 292.975 288.284 292.975 287.692V281.908L290.767 283.3L290.263 282.532L295.591 279.052H296.743C296.679 279.356 296.631 279.66 296.599 279.964C296.583 280.268 296.575 280.572 296.575 280.876V287.692ZM306.091 278.932C307.035 278.932 307.923 279.172 308.755 279.652C309.587 280.116 310.259 280.78 310.771 281.644C311.299 282.508 311.563 283.54 311.563 284.74C311.563 285.94 311.299 286.988 310.771 287.884C310.259 288.764 309.579 289.452 308.731 289.948C307.883 290.444 306.971 290.692 305.995 290.692C305.051 290.692 304.163 290.46 303.331 289.996C302.499 289.516 301.819 288.844 301.291 287.98C300.779 287.1 300.523 286.06 300.523 284.86C300.523 283.66 300.779 282.62 301.291 281.74C301.819 280.844 302.507 280.156 303.355 279.676C304.203 279.18 305.115 278.932 306.091 278.932ZM306.115 287.212C307.555 287.212 308.619 286.956 309.307 286.444C310.011 285.932 310.363 285.38 310.363 284.788C310.363 284.148 309.987 283.596 309.235 283.132C308.499 282.652 307.411 282.412 305.971 282.412C304.547 282.412 303.483 282.652 302.779 283.132C302.075 283.596 301.723 284.132 301.723 284.74C301.723 285.38 302.099 285.956 302.851 286.468C303.603 286.964 304.691 287.212 306.115 287.212Z" fill="#8A929C"/>
<path d="M276.7 431.692C276.7 432.284 276.748 432.732 276.844 433.036C276.956 433.324 277.18 433.516 277.516 433.612C277.868 433.708 278.396 433.764 279.1 433.78V434.332H270.7V433.78C271.42 433.764 271.948 433.708 272.284 433.612C272.636 433.516 272.86 433.324 272.956 433.036C273.052 432.732 273.1 432.284 273.1 431.692V425.908L270.892 427.3L270.388 426.532L275.716 423.052H276.868C276.804 423.356 276.756 423.66 276.724 423.964C276.708 424.268 276.7 424.572 276.7 424.876V431.692ZM287.224 431.692C287.224 432.284 287.272 432.732 287.368 433.036C287.48 433.324 287.704 433.516 288.04 433.612C288.392 433.708 288.92 433.764 289.624 433.78V434.332H281.224V433.78C281.944 433.764 282.472 433.708 282.808 433.612C283.16 433.516 283.384 433.324 283.48 433.036C283.576 432.732 283.624 432.284 283.624 431.692V425.908L281.416 427.3L280.912 426.532L286.24 423.052H287.392C287.328 423.356 287.28 423.66 287.248 423.964C287.232 424.268 287.224 424.572 287.224 424.876V431.692Z" fill="#8A929C"/>
<path d="M289.079 354.692C289.079 355.284 289.127 355.732 289.223 356.036C289.335 356.324 289.559 356.516 289.895 356.612C290.247 356.708 290.775 356.764 291.479 356.78V357.332H283.079V356.78C283.799 356.764 284.327 356.708 284.663 356.612C285.015 356.516 285.239 356.324 285.335 356.036C285.431 355.732 285.479 355.284 285.479 354.692V348.908L283.271 350.3L282.767 349.532L288.095 346.052H289.247C289.183 346.356 289.135 346.66 289.103 346.964C289.087 347.268 289.079 347.572 289.079 347.876V354.692ZM302.531 353.132H303.083L302.843 357.332H292.955V356.78C293.099 356.7 293.299 356.58 293.555 356.42C293.827 356.244 294.091 356.068 294.347 355.892C295.243 355.252 295.947 354.636 296.459 354.044C296.987 353.452 297.379 352.9 297.635 352.388C297.891 351.86 298.051 351.396 298.115 350.996C298.195 350.58 298.235 350.252 298.235 350.012C298.235 349.548 298.099 349.172 297.827 348.884C297.571 348.596 297.139 348.452 296.531 348.452C296.003 348.452 295.515 348.588 295.067 348.86C294.619 349.116 294.123 349.548 293.579 350.156L293.123 349.772C293.667 348.588 294.395 347.652 295.307 346.964C296.219 346.276 297.331 345.932 298.643 345.932C299.779 345.932 300.635 346.196 301.211 346.724C301.787 347.236 302.075 347.956 302.075 348.884C302.075 350.084 301.667 351.124 300.851 352.004C300.035 352.868 298.955 353.66 297.611 354.38V354.452H300.011C300.923 354.452 301.555 354.34 301.907 354.116C302.259 353.876 302.467 353.548 302.531 353.132Z" fill="#8A929C"/>
<path d="M345.868 359.692C345.868 360.284 345.916 360.732 346.012 361.036C346.124 361.324 346.348 361.516 346.684 361.612C347.036 361.708 347.564 361.764 348.268 361.78V362.332H339.868V361.78C340.588 361.764 341.116 361.708 341.452 361.612C341.804 361.516 342.028 361.324 342.124 361.036C342.22 360.732 342.268 360.284 342.268 359.692V353.908L340.06 355.3L339.556 354.532L344.884 351.052H346.036C345.972 351.356 345.924 351.66 345.892 351.964C345.876 352.268 345.868 352.572 345.868 352.876V359.692ZM354.952 358.3V358.372C355.464 358.372 356.024 358.452 356.632 358.612C357.24 358.756 357.816 358.996 358.36 359.332C358.904 359.668 359.352 360.116 359.704 360.676C360.056 361.22 360.232 361.884 360.232 362.668C360.232 363.484 360.032 364.228 359.632 364.9C359.232 365.572 358.696 366.14 358.024 366.604C357.352 367.084 356.592 367.452 355.744 367.708C354.896 367.964 354.016 368.092 353.104 368.092C352.688 368.092 352.208 368.052 351.664 367.972C351.12 367.908 350.584 367.788 350.056 367.612C349.528 367.436 349.056 367.188 348.64 366.868C348.768 365.812 349.12 364.908 349.696 364.156C350.224 365.1 350.792 365.82 351.4 366.316C352.008 366.812 352.664 367.06 353.368 367.06C354.056 367.06 354.616 366.876 355.048 366.508C355.496 366.14 355.832 365.66 356.056 365.068C356.28 364.492 356.392 363.892 356.392 363.268C356.392 361.956 355.92 361.028 354.976 360.484C354.032 359.924 352.752 359.86 351.136 360.292V359.38C352.208 358.996 353.048 358.572 353.656 358.108C354.264 357.628 354.696 357.14 354.952 356.644C355.208 356.148 355.336 355.692 355.336 355.276C355.336 354.7 355.184 354.252 354.88 353.932C354.576 353.612 354.104 353.452 353.464 353.452C352.92 353.452 352.352 353.604 351.76 353.908C351.168 354.212 350.568 354.708 349.96 355.396L349.504 355.012C349.856 354.26 350.288 353.58 350.8 352.972C351.328 352.348 351.96 351.852 352.696 351.484C353.432 351.116 354.288 350.932 355.264 350.932C356.4 350.932 357.312 351.196 358 351.724C358.704 352.236 359.056 352.972 359.056 353.932C359.056 354.46 358.92 354.996 358.648 355.54C358.392 356.084 357.96 356.596 357.352 357.076C356.76 357.556 355.96 357.964 354.952 358.3Z" fill="#8A929C"/>
<path d="M138.945 147.452H142.665V143.084H142.593L138.945 147.452ZM146.073 155.732L142.521 156.092C142.553 155.42 142.585 154.588 142.617 153.596C142.649 152.604 142.665 151.516 142.665 150.332H135.513V149.78C135.737 149.572 135.937 149.364 136.113 149.156C136.289 148.948 136.457 148.74 136.617 148.532L143.793 139.988C143.985 139.764 144.169 139.532 144.345 139.292C144.537 139.052 144.721 138.788 144.897 138.5H146.049L146.025 147.452H147.705V150.332H146.697C146.441 150.332 146.265 150.42 146.169 150.596C146.073 150.772 146.025 151.004 146.025 151.292C146.025 152.028 146.025 152.772 146.025 153.524C146.041 154.276 146.057 155.012 146.073 155.732Z" fill="#8A929C"/>
<path d="M271.657 97V87.2H276.039C277.141 87.2 277.999 87.4193 278.615 87.858C279.231 88.2873 279.539 88.908 279.539 89.72C279.539 90.5227 279.245 91.1433 278.657 91.582C278.069 92.0113 277.295 92.226 276.333 92.226L276.585 91.722C277.677 91.722 278.522 91.9413 279.119 92.38C279.717 92.8187 280.015 93.4533 280.015 94.284C280.015 95.1333 279.703 95.8007 279.077 96.286C278.452 96.762 277.528 97 276.305 97H271.657ZM273.449 95.6H276.249C276.884 95.6 277.365 95.4833 277.691 95.25C278.018 95.0073 278.181 94.6387 278.181 94.144C278.181 93.6493 278.018 93.29 277.691 93.066C277.365 92.8327 276.884 92.716 276.249 92.716H273.449V95.6ZM273.449 91.386H275.885C276.473 91.386 276.921 91.2693 277.229 91.036C277.537 90.7933 277.691 90.448 277.691 90C277.691 89.5333 277.537 89.1833 277.229 88.95C276.921 88.7167 276.473 88.6 275.885 88.6H273.449V91.386ZM282.103 97V87.2H283.895V94.158L289.159 87.2H290.853V97H289.061V90.056L283.797 97H282.103ZM300.015 96.16V88.74H296.179L296.109 90.476C296.081 91.1293 296.039 91.75 295.983 92.338C295.936 92.9167 295.857 93.444 295.745 93.92C295.642 94.396 295.497 94.7927 295.311 95.11C295.124 95.4273 294.895 95.6373 294.625 95.74L292.665 95.46C293.019 95.4787 293.309 95.3573 293.533 95.096C293.766 94.8347 293.948 94.4707 294.079 94.004C294.209 93.5373 294.307 92.9913 294.373 92.366C294.438 91.7313 294.485 91.0453 294.513 90.308L294.625 87.2H301.807V96.16H300.015ZM292.329 99.086L292.343 95.46H303.221V99.086H301.541V97H294.023V99.086H292.329ZM315.692 87.2H317.512V97H315.692V87.2ZM310.624 97H308.804V87.2H310.624V97ZM315.832 92.8H310.47V91.246H315.832V92.8ZM319.015 97L323.425 87.2H325.217L329.641 97H327.737L323.943 88.166H324.671L320.891 97H319.015ZM321.045 94.732L321.535 93.304H326.827L327.317 94.732H321.045ZM335.027 97V87.2H341.677L341.663 88.74H336.385L336.805 88.306L336.819 97H335.027ZM346.631 97.14C345.866 97.14 345.161 97.014 344.517 96.762C343.873 96.51 343.313 96.16 342.837 95.712C342.361 95.2547 341.992 94.7227 341.731 94.116C341.47 93.5 341.339 92.828 341.339 92.1C341.339 91.372 341.47 90.7047 341.731 90.098C341.992 89.482 342.361 88.95 342.837 88.502C343.313 88.0447 343.873 87.69 344.517 87.438C345.161 87.186 345.861 87.06 346.617 87.06C347.382 87.06 348.082 87.186 348.717 87.438C349.361 87.69 349.921 88.0447 350.397 88.502C350.873 88.95 351.242 89.482 351.503 90.098C351.764 90.7047 351.895 91.372 351.895 92.1C351.895 92.828 351.764 93.5 351.503 94.116C351.242 94.732 350.873 95.264 350.397 95.712C349.921 96.16 349.361 96.51 348.717 96.762C348.082 97.014 347.387 97.14 346.631 97.14ZM346.617 95.544C347.112 95.544 347.569 95.46 347.989 95.292C348.409 95.124 348.773 94.886 349.081 94.578C349.389 94.2607 349.627 93.8967 349.795 93.486C349.972 93.066 350.061 92.604 350.061 92.1C350.061 91.596 349.972 91.1387 349.795 90.728C349.627 90.308 349.389 89.944 349.081 89.636C348.773 89.3187 348.409 89.076 347.989 88.908C347.569 88.74 347.112 88.656 346.617 88.656C346.122 88.656 345.665 88.74 345.245 88.908C344.834 89.076 344.47 89.3187 344.153 89.636C343.845 89.944 343.602 90.308 343.425 90.728C343.257 91.1387 343.173 91.596 343.173 92.1C343.173 92.5947 343.257 93.052 343.425 93.472C343.602 93.892 343.845 94.2607 344.153 94.578C344.461 94.886 344.825 95.124 345.245 95.292C345.665 95.46 346.122 95.544 346.617 95.544ZM353.907 97V87.2H357.939C358.807 87.2 359.549 87.34 360.165 87.62C360.79 87.9 361.271 88.3013 361.607 88.824C361.943 89.3467 362.111 89.9673 362.111 90.686C362.111 91.4047 361.943 92.0253 361.607 92.548C361.271 93.0707 360.79 93.472 360.165 93.752C359.549 94.032 358.807 94.172 357.939 94.172H354.915L355.727 93.318V97H353.907ZM355.727 93.514L354.915 92.632H357.855C358.658 92.632 359.26 92.464 359.661 92.128C360.072 91.7827 360.277 91.302 360.277 90.686C360.277 90.0607 360.072 89.58 359.661 89.244C359.26 88.908 358.658 88.74 357.855 88.74H354.915L355.727 87.844V93.514ZM368.355 90.518C369.522 90.518 370.422 90.7793 371.057 91.302C371.692 91.8247 372.009 92.6087 372.009 93.654C372.009 94.7553 371.659 95.5907 370.959 96.16C370.268 96.72 369.302 97 368.061 97H363.847V87.2H365.639V90.518H368.355ZM367.977 95.6C368.677 95.6 369.218 95.4367 369.601 95.11C369.993 94.7833 370.189 94.3073 370.189 93.682C370.189 93.066 369.998 92.618 369.615 92.338C369.232 92.0487 368.686 91.904 367.977 91.904H365.639V95.6H367.977ZM373.423 97V87.2H375.215V97H373.423Z" fill="#AAAEB9"/>
<path d="M301.676 29.4204C301.705 29.8894 302.094 30.2548 302.564 30.2548H312.849C313.261 30.2548 313.62 29.9712 313.715 29.5697C313.773 29.3248 313.802 29.0791 313.802 28.8393C313.802 27.0929 312.381 25.672 310.635 25.672C310.249 25.672 309.873 25.741 309.519 25.875C308.841 25.1592 307.888 24.7376 306.88 24.7376C305.567 24.7376 304.354 25.462 303.716 26.5844C302.532 26.8993 301.668 27.9788 301.668 29.248C301.668 29.299 301.671 29.3491 301.675 29.3991L301.676 29.4204ZM304.37 28.273C304.719 28.2531 305.023 28.0308 305.149 27.7049C305.423 26.9945 306.119 26.5172 306.88 26.5172C307.546 26.5172 308.165 26.8781 308.494 27.4592C308.62 27.6818 308.836 27.8393 309.087 27.8915C309.337 27.9432 309.599 27.8852 309.803 27.7313C310.047 27.5481 310.334 27.4515 310.635 27.4515C311.274 27.4515 311.814 27.8858 311.974 28.4749H303.829C303.98 28.3583 304.166 28.2848 304.37 28.273Z" fill="#AAAEB9"/>
<path d="M334.25 26.5164C334.279 26.9856 334.668 27.3509 335.138 27.3509H347.717C348.13 27.3509 348.489 27.0673 348.583 26.6657C348.651 26.3812 348.685 26.0961 348.685 25.8182C348.685 23.7915 347.036 22.1428 345.009 22.1428C344.516 22.1428 344.037 22.2399 343.591 22.4279C342.794 21.5314 341.64 21 340.416 21C338.854 21 337.412 21.8783 336.679 23.232C335.274 23.566 334.241 24.8287 334.241 26.3183C334.241 26.3757 334.244 26.4321 334.248 26.4885L334.25 26.5164ZM337.335 24.9277C337.684 24.9076 337.988 24.6855 338.114 24.3596C338.479 23.4146 339.404 22.7797 340.416 22.7797C341.303 22.7797 342.126 23.2599 342.564 24.0328C342.69 24.2555 342.906 24.413 343.157 24.4651C343.407 24.5173 343.668 24.4587 343.873 24.3048C344.205 24.0547 344.598 23.9227 345.009 23.9227C345.971 23.9227 346.768 24.6424 346.889 25.5714H336.238C336.472 25.2055 336.872 24.9544 337.335 24.9277Z" fill="#AAAEB9"/>
<path d="M361.991 57.377C359.318 56.9867 356.566 56.6803 353.774 56.4555L359.964 45.8095V48.4077C359.964 48.9484 360.402 49.3866 360.943 49.3866C361.483 49.3866 361.922 48.9484 361.922 48.4077V42.1787C361.922 41.8432 361.75 41.5311 361.466 41.3517C361.182 41.1721 360.827 41.1506 360.524 41.2942L356.285 43.3021L357.406 41.0066C358.924 39.9078 360.346 38.7542 361.616 37.55C362.008 37.1781 362.025 36.5585 361.653 36.1663C361.281 35.774 360.661 35.7575 360.269 36.1296C357.609 38.6526 354.199 40.9683 350.62 43.0106C347.165 41.5839 345.283 39.9539 343.615 38.5089C343.055 38.024 342.527 37.566 341.963 37.132C341.634 36.8792 341.182 36.8607 340.834 37.086C338.463 38.6202 333.637 39.6987 332.106 40.0133C327.971 36.1259 324.826 32.6738 322.591 30.2193C321.926 29.4877 320.829 29.0878 319.579 29.1244C318.31 29.1609 317.194 29.624 316.595 30.3635C313.631 34.0242 308.435 38.5881 303.535 42.559C302.128 42.2823 297.427 41.1947 293.144 38.3393C292.71 38.0498 292.125 38.1519 291.814 38.5719C288.905 42.5074 281.927 47.9356 281.857 47.99C281.43 48.3213 281.352 48.9361 281.683 49.3633C281.876 49.6123 282.165 49.7425 282.457 49.7425C282.667 49.7425 282.878 49.6756 283.056 49.5373C283.226 49.406 285.6 47.5588 288.171 45.2235L288.477 46.0708C288.583 46.3627 288.82 46.5871 289.118 46.6759C289.21 46.7033 289.304 46.7168 289.398 46.7168C289.607 46.7168 289.814 46.6497 289.985 46.5211L292.422 44.6931L294.605 45.4208C295.06 45.5726 295.558 45.3723 295.781 44.948L297.018 42.5973C298.79 43.3357 300.392 43.8205 301.581 44.1243C296.728 47.9701 292.536 50.9933 291.651 51.6271C288.256 52.2612 284.922 53.0774 281.688 54.084C281.172 54.2447 280.884 54.7932 281.044 55.3095C281.205 55.8256 281.753 56.114 282.27 55.9532C291.442 53.0987 301.668 51.7367 311.843 52.0152C320.438 52.2504 328.896 53.6626 336.596 56.1227C334.225 56.2206 331.876 56.375 329.574 56.5943C317.103 57.7823 306.156 60.7496 297.887 65.1777C292.546 65.1482 287.199 65.4203 281.874 65.995C281.337 66.053 280.948 66.5357 281.006 67.0731C281.064 67.6108 281.548 67.9991 282.084 67.9413C294.107 66.644 306.244 66.9094 318.158 68.7297C329.886 70.5215 340.817 73.7277 350.65 78.2592C350.782 78.3204 350.922 78.3493 351.059 78.3493C351.429 78.3493 351.783 78.138 351.948 77.7799C352.175 77.2889 351.96 76.7075 351.469 76.4813C341.47 71.873 330.362 68.614 318.454 66.7944C313.049 65.9686 307.599 65.4609 302.134 65.2669C320.142 57.1343 345.059 56.8826 361.708 59.3141C362.243 59.392 362.74 59.0218 362.818 58.487C362.896 57.9522 362.526 57.4552 361.991 57.377ZM294.436 43.3008L292.555 42.6738C292.25 42.5722 291.915 42.6267 291.658 42.8194L289.869 44.1615L289.727 43.7682C290.856 42.6774 291.945 41.5403 292.825 40.4597C293.63 40.9573 294.439 41.3978 295.232 41.7881L294.436 43.3008ZM353.35 44.8504L349.131 50.0074L347.885 49.328C347.595 49.1698 347.244 49.1688 346.953 49.3252L337.577 54.3659C336.118 53.8886 334.637 53.4506 333.137 53.0519C337.79 51.3884 346.616 47.9238 354.162 43.1876L353.35 44.8504ZM327.577 51.7688L326.12 45.8597C326.057 45.6025 325.892 45.382 325.663 45.2486L323.825 44.1765L322.261 40.0883L327.513 44.4852L331.915 49.4156C332.162 49.6925 332.545 49.8054 332.903 49.708L334.124 49.375L334.688 50.379C332.144 51.3464 330.281 51.97 329.604 52.1911C328.932 52.0423 328.256 51.9022 327.577 51.7688ZM341.284 39.0941C341.629 39.3776 341.974 39.6771 342.333 39.9881C342.831 40.4196 343.348 40.8669 343.914 41.3207L341.782 42.7854L340.561 41.0758C340.337 40.7622 339.95 40.6092 339.572 40.685L338.081 40.9831L338.085 40.4479C339.226 40.0601 340.351 39.6067 341.284 39.0941ZM336.123 41.0538L336.115 42.1725C336.113 42.4669 336.244 42.7464 336.471 42.9339C336.698 43.1213 336.998 43.1964 337.286 43.1387L339.335 42.729L340.747 44.7056C340.938 44.9727 341.239 45.1156 341.544 45.1156C341.735 45.1156 341.928 45.0597 342.098 44.9435L345.582 42.5505C346.408 43.1052 347.351 43.6586 348.469 44.1953C345.984 45.5196 343.475 46.7099 341.127 47.7432C338.454 45.6643 336.035 43.6053 333.86 41.6341C334.515 41.4816 335.294 41.2871 336.123 41.0538ZM339.078 48.6234C338.191 48.9958 337.338 49.3432 336.531 49.663L335.456 47.75C335.236 47.359 334.78 47.1669 334.345 47.2853L332.972 47.6597L329.137 43.3644L328.735 39.4924C331.614 42.312 335.05 45.434 339.078 48.6234ZM318.116 31.5951C318.31 31.3555 318.894 31.1019 319.635 31.0807C320.29 31.0603 320.87 31.2364 321.143 31.5365C322.569 33.1018 324.36 35.0687 326.539 37.2946L326.973 41.4802L321.171 36.623C320.783 36.2974 320.209 36.3227 319.851 36.6813L317.646 38.8861L317.341 38.2142C317.222 37.9528 316.994 37.7568 316.718 37.678C316.442 37.5991 316.145 37.6454 315.907 37.8047L312.121 40.3285L312.92 37.0456C314.938 35.149 316.745 33.289 318.116 31.5951ZM307.744 50.0248C306.264 50.0479 304.785 50.1044 303.309 50.1946L311.173 43.3136L316.035 40.0724L316.255 40.557L314.599 43.8696H313.068C312.768 43.8696 312.485 44.007 312.299 44.2427L307.744 50.0248ZM310.332 39.4007L309.699 42.0022L300.045 50.4493C298.667 50.5803 297.295 50.7413 295.93 50.9312C299.471 48.3074 305.241 43.8992 310.332 39.4007ZM310.244 50.015L313.543 45.8272H315.204C315.575 45.8272 315.914 45.6177 316.079 45.2859L318.144 41.1568L319.901 39.3995L322.12 45.198C322.2 45.4064 322.348 45.5812 322.541 45.6937L324.319 46.7307L325.466 51.3802C320.481 50.5219 315.369 50.0659 310.244 50.015ZM342.101 56.0025C341.437 55.7384 340.766 55.4841 340.091 55.2374L347.414 51.3007L348.906 52.1147C349.319 52.34 349.834 52.2395 350.132 51.8752L354.798 46.1726L358.511 44.4137L351.601 56.2983C348.457 56.0951 345.274 55.996 342.101 56.0025Z" fill="#AAAEB9"/>
<path d="M38.4501 454V444.2H39.9341L44.2321 451.354H43.4341L47.6621 444.2H49.1461L49.1741 454H47.4381L47.4241 446.902H47.7881L44.2041 452.88H43.3921L39.7521 446.902H40.1721V454H38.4501ZM56.4666 454.14C55.7012 454.14 54.9966 454.014 54.3526 453.762C53.7086 453.51 53.1486 453.16 52.6726 452.712C52.1966 452.255 51.8279 451.723 51.5666 451.116C51.3052 450.5 51.1746 449.828 51.1746 449.1C51.1746 448.372 51.3052 447.705 51.5666 447.098C51.8279 446.482 52.1966 445.95 52.6726 445.502C53.1486 445.045 53.7086 444.69 54.3526 444.438C54.9966 444.186 55.6966 444.06 56.4526 444.06C57.2179 444.06 57.9179 444.186 58.5526 444.438C59.1966 444.69 59.7566 445.045 60.2326 445.502C60.7086 445.95 61.0772 446.482 61.3386 447.098C61.5999 447.705 61.7306 448.372 61.7306 449.1C61.7306 449.828 61.5999 450.5 61.3386 451.116C61.0772 451.732 60.7086 452.264 60.2326 452.712C59.7566 453.16 59.1966 453.51 58.5526 453.762C57.9179 454.014 57.2226 454.14 56.4666 454.14ZM56.4526 452.544C56.9472 452.544 57.4046 452.46 57.8246 452.292C58.2446 452.124 58.6086 451.886 58.9166 451.578C59.2246 451.261 59.4626 450.897 59.6306 450.486C59.8079 450.066 59.8966 449.604 59.8966 449.1C59.8966 448.596 59.8079 448.139 59.6306 447.728C59.4626 447.308 59.2246 446.944 58.9166 446.636C58.6086 446.319 58.2446 446.076 57.8246 445.908C57.4046 445.74 56.9472 445.656 56.4526 445.656C55.9579 445.656 55.5006 445.74 55.0806 445.908C54.6699 446.076 54.3059 446.319 53.9886 446.636C53.6806 446.944 53.4379 447.308 53.2606 447.728C53.0926 448.139 53.0086 448.596 53.0086 449.1C53.0086 449.595 53.0926 450.052 53.2606 450.472C53.4379 450.892 53.6806 451.261 53.9886 451.578C54.2966 451.886 54.6606 452.124 55.0806 452.292C55.5006 452.46 55.9579 452.544 56.4526 452.544ZM63.7427 454V444.2H67.7747C68.6427 444.2 69.3847 444.34 70.0007 444.62C70.6261 444.9 71.1067 445.301 71.4427 445.824C71.7787 446.347 71.9467 446.967 71.9467 447.686C71.9467 448.405 71.7787 449.025 71.4427 449.548C71.1067 450.071 70.6261 450.472 70.0007 450.752C69.3847 451.032 68.6427 451.172 67.7747 451.172H64.7507L65.5627 450.318V454H63.7427ZM65.5627 450.514L64.7507 449.632H67.6907C68.4934 449.632 69.0954 449.464 69.4967 449.128C69.9074 448.783 70.1127 448.302 70.1127 447.686C70.1127 447.061 69.9074 446.58 69.4967 446.244C69.0954 445.908 68.4934 445.74 67.6907 445.74H64.7507L65.5627 444.844V450.514ZM75.3485 448.274H80.2205V449.772H75.3485V448.274ZM75.4885 452.474H81.0185V454H73.6685V444.2H80.8225V445.726H75.4885V452.474Z" fill="#8DA5C6"/>
<path d="M43.6439 386.63H51.0744C51.6835 386.63 52.1775 386.136 52.1775 385.527C52.1775 384.917 51.6835 384.423 51.0744 384.423H43.6439C43.0345 384.423 42.5408 384.917 42.5408 385.527C42.5408 386.136 43.0345 386.63 43.6439 386.63Z" fill="#8DA5C6"/>
<path d="M67.9579 385.527C67.9579 386.136 68.4516 386.63 69.061 386.63H76.4909C77.0999 386.63 77.594 386.136 77.594 385.527C77.594 384.917 77.0999 384.423 76.4909 384.423H69.061C68.4514 384.423 67.9579 384.917 67.9579 385.527Z" fill="#8DA5C6"/>
<path d="M65.7448 391.204C65.3139 391.635 65.3139 392.333 65.7448 392.764L68.2797 395.299C68.4951 395.514 68.7774 395.622 69.0596 395.622C69.3418 395.622 69.6244 395.514 69.8398 395.299C70.2703 394.868 70.2703 394.17 69.8398 393.739L67.3049 391.204C66.874 390.773 66.1756 390.773 65.7448 391.204Z" fill="#8DA5C6"/>
<path d="M58.9644 394.897V401.95C58.9644 402.559 59.4581 403.053 60.0675 403.053C60.6765 403.053 61.1706 402.559 61.1706 401.95V394.897C61.1706 394.287 60.6765 393.793 60.0675 393.793C59.4581 393.793 58.9644 394.287 58.9644 394.897Z" fill="#8DA5C6"/>
<path d="M52.8299 391.204L50.2953 393.739C49.8645 394.17 49.8645 394.868 50.2953 395.299C50.5107 395.514 50.793 395.622 51.0752 395.622C51.3577 395.622 51.64 395.514 51.8554 395.299L54.39 392.764C54.8209 392.333 54.8209 391.635 54.39 391.204C53.9593 390.773 53.2608 390.773 52.8299 391.204Z" fill="#8DA5C6"/>
<path d="M60.0681 392.675C64.0096 392.675 67.2164 389.468 67.2164 385.526C67.2164 381.585 64.0095 378.378 60.0681 378.378C56.1262 378.378 52.9192 381.585 52.9192 385.526C52.9192 389.468 56.1262 392.675 60.0681 392.675ZM60.0681 380.584C62.7932 380.584 65.0102 382.801 65.0102 385.526C65.0102 388.251 62.7932 390.468 60.0681 390.468C57.3426 390.468 55.1254 388.251 55.1254 385.526C55.1254 382.801 57.3426 380.584 60.0681 380.584Z" fill="#8DA5C6"/>
<path d="M52.8302 379.849C53.0453 380.065 53.3279 380.172 53.6101 380.172C53.8924 380.172 54.1746 380.065 54.39 379.849C54.8209 379.418 54.8209 378.72 54.39 378.289L51.8554 375.755C51.4246 375.324 50.7261 375.324 50.2953 375.755C49.8645 376.185 49.8645 376.884 50.2953 377.315L52.8302 379.849Z" fill="#8DA5C6"/>
<path d="M60.0675 377.26C60.6765 377.26 61.1706 376.766 61.1706 376.157V369.103C61.1706 368.494 60.6765 368 60.0675 368C59.4581 368 58.9644 368.494 58.9644 369.103V376.157C58.9644 376.766 59.4581 377.26 60.0675 377.26Z" fill="#8DA5C6"/>
<path d="M66.5247 380.172C66.8069 380.172 67.0894 380.064 67.3046 379.849L69.8395 377.315C70.2703 376.884 70.2703 376.185 69.8398 375.755C69.409 375.324 68.7105 375.324 68.2797 375.754L65.7448 378.289C65.3139 378.72 65.3139 379.418 65.7448 379.849C65.9602 380.065 66.2424 380.172 66.5247 380.172Z" fill="#8DA5C6"/>
<path d="M87.8223 408.507C86.2135 408.507 85.4672 407.917 84.5223 407.169C83.4476 406.319 82.2293 405.356 79.8538 405.356C77.478 405.356 76.2597 406.319 75.185 407.169C74.2401 407.917 73.4938 408.507 71.8851 408.507C70.277 408.507 69.5306 407.917 68.5856 407.169C67.5112 406.319 66.2929 405.356 63.9177 405.356C61.5423 405.356 60.324 406.319 59.2496 407.169C58.3047 407.917 57.5583 408.507 55.95 408.507C54.3418 408.507 53.5955 407.917 52.6508 407.169C51.576 406.319 50.3581 405.356 47.9826 405.356C45.6072 405.356 44.3892 406.319 43.3147 407.169C42.3699 407.917 41.6238 408.507 40.0155 408.507C38.407 408.507 37.661 407.917 36.716 407.169C35.6412 406.319 34.4233 405.356 32.0478 405.356C31.4384 405.356 30.9447 405.849 30.9447 406.459C30.9447 407.068 31.4384 407.562 32.0478 407.562C33.656 407.562 34.4023 408.152 35.347 408.9C36.4218 409.75 37.6401 410.714 40.0155 410.714C42.3907 410.714 43.609 409.75 44.6834 408.9C45.6283 408.152 46.3743 407.562 47.9826 407.562C49.5909 407.562 50.3371 408.152 51.2817 408.9C52.3564 409.75 53.5744 410.714 55.9499 410.714C58.3253 410.714 59.5433 409.75 60.618 408.9C61.5629 408.152 62.3089 407.562 63.9176 407.562C65.5257 407.562 66.2718 408.152 67.2168 408.9C68.2915 409.75 69.5095 410.714 71.885 410.714C74.2608 410.714 75.4787 409.75 76.5535 408.9C77.4984 408.152 78.2448 407.562 79.8535 407.562C81.462 407.562 82.2083 408.152 83.1532 408.9C84.2279 409.75 85.4462 410.714 87.822 410.714C88.4311 410.714 88.9251 410.219 88.9251 409.61C88.9254 409.001 88.4314 408.507 87.8223 408.507Z" fill="#8DA5C6"/>
<path d="M87.8223 428.707C86.2135 428.707 85.4672 428.116 84.5223 427.369C83.4476 426.519 82.2293 425.555 79.8538 425.555C77.478 425.555 76.2597 426.519 75.185 427.369C74.2401 428.116 73.4938 428.707 71.8851 428.707C70.277 428.707 69.5306 428.116 68.5856 427.369C67.5112 426.519 66.2929 425.555 63.9177 425.555C61.5423 425.555 60.324 426.519 59.2496 427.369C58.3047 428.116 57.5583 428.707 55.95 428.707C54.3418 428.707 53.5955 428.116 52.6508 427.369C51.576 426.519 50.3581 425.555 47.9826 425.555C45.6072 425.555 44.3892 426.519 43.3147 427.369C42.3699 428.116 41.6238 428.707 40.0155 428.707C38.407 428.707 37.661 428.116 36.716 427.369C35.6412 426.519 34.4233 425.555 32.0478 425.555C31.4384 425.555 30.9447 426.049 30.9447 426.658C30.9447 427.267 31.4384 427.761 32.0478 427.761C33.656 427.761 34.4023 428.352 35.347 429.099C36.4218 429.949 37.6401 430.913 40.0155 430.913C42.3907 430.913 43.609 429.949 44.6834 429.099C45.6283 428.352 46.3743 427.761 47.9826 427.761C49.5909 427.761 50.3371 428.352 51.2817 429.099C52.3564 429.949 53.5744 430.913 55.9499 430.913C58.3253 430.913 59.5433 429.949 60.618 429.099C61.5629 428.352 62.3089 427.761 63.9176 427.761C65.5257 427.761 66.2718 428.352 67.2168 429.099C68.2915 429.949 69.5095 430.913 71.885 430.913C74.2608 430.913 75.4787 429.95 76.5535 429.099C77.4984 428.352 78.2448 427.761 79.8535 427.761C81.462 427.761 82.2083 428.352 83.1532 429.099C84.2279 429.949 85.4462 430.913 87.822 430.913C88.4311 430.913 88.9251 430.419 88.9251 429.81C88.9254 429.201 88.4314 428.707 87.8223 428.707Z" fill="#8DA5C6"/>
<path d="M71.8776 415.283C70.2688 415.283 69.5225 414.693 68.5776 413.945C67.5029 413.095 66.2846 412.132 63.9091 412.132C61.5333 412.132 60.315 413.095 59.2403 413.945C58.2954 414.693 57.5491 415.283 55.9404 415.283C54.3323 415.283 53.5859 414.693 52.6409 413.945C51.5665 413.095 50.3482 412.132 47.973 412.132C45.5976 412.132 44.3793 413.095 43.3049 413.945C42.36 414.693 41.6136 415.283 40.0053 415.283C38.3971 415.283 37.6508 414.693 36.7061 413.945C35.6313 413.095 34.4134 412.132 32.0379 412.132C29.6625 412.132 28.4445 413.095 27.37 413.945C26.4252 414.693 25.6791 415.283 24.0708 415.283C22.4623 415.283 21.7163 414.693 20.7713 413.945C19.6965 413.095 18.4786 412.132 16.1031 412.132C15.4937 412.132 15 412.625 15 413.235C15 413.844 15.4937 414.338 16.1031 414.338C17.7113 414.338 18.4576 414.928 19.4023 415.676C20.4771 416.526 21.6954 417.49 24.0708 417.49C26.446 417.49 27.6643 416.526 28.7387 415.676C29.6836 414.928 30.4296 414.338 32.0379 414.338C33.6462 414.338 34.3924 414.928 35.337 415.676C36.4117 416.526 37.6297 417.49 40.0052 417.49C42.3806 417.49 43.5986 416.526 44.6733 415.676C45.6182 414.928 46.3642 414.338 47.9729 414.338C49.581 414.338 50.3271 414.928 51.2721 415.676C52.3468 416.526 53.5648 417.49 55.9403 417.49C58.3161 417.49 59.534 416.526 60.6088 415.676C61.5537 414.928 62.3001 414.338 63.9088 414.338C65.5173 414.338 66.2636 414.928 67.2085 415.676C68.2832 416.526 69.5015 417.49 71.8773 417.49C72.4864 417.49 72.9804 416.996 72.9804 416.386C72.9807 415.777 72.4867 415.283 71.8776 415.283Z" fill="#8DA5C6"/>
<path d="M103.767 422.06C102.158 422.06 101.412 421.469 100.467 420.722C99.3923 419.872 98.174 418.908 95.7985 418.908C93.4227 418.908 92.2044 419.872 91.1297 420.722C90.1848 421.469 89.4385 422.06 87.8298 422.06C86.2217 422.06 85.4753 421.469 84.5303 420.722C83.4559 419.872 82.2376 418.908 79.8624 418.908C77.487 418.908 76.2687 419.872 75.1943 420.722C74.2494 421.469 73.503 422.06 71.8947 422.06C70.2866 422.06 69.5402 421.469 68.5955 420.722C67.5208 419.872 66.3028 418.908 63.9273 418.908C61.5519 418.908 60.3339 419.872 59.2595 420.722C58.3146 421.469 57.5686 422.06 55.9602 422.06C54.3517 422.06 53.6057 421.469 52.6607 420.722C51.5859 419.872 50.368 418.908 47.9925 418.908C47.3831 418.908 46.8894 419.402 46.8894 420.011C46.8894 420.62 47.3831 421.114 47.9925 421.114C49.6007 421.114 50.347 421.705 51.2917 422.452C52.3665 423.302 53.5848 424.266 55.9602 424.266C58.3354 424.266 59.5537 423.302 60.6281 422.452C61.573 421.705 62.319 421.114 63.9273 421.114C65.5356 421.114 66.2818 421.705 67.2264 422.452C68.3011 423.302 69.5191 424.266 71.8946 424.266C74.27 424.266 75.488 423.302 76.5627 422.452C77.5076 421.705 78.2536 421.114 79.8623 421.114C81.4704 421.114 82.2165 421.705 83.1615 422.452C84.2362 423.302 85.4542 424.266 87.8297 424.266C90.2055 424.266 91.4234 423.302 92.4982 422.452C93.4431 421.705 94.1895 421.114 95.7982 421.114C97.4067 421.114 98.153 421.705 99.0979 422.452C100.173 423.302 101.391 424.266 103.767 424.266C104.376 424.266 104.87 423.772 104.87 423.163C104.87 422.553 104.376 422.06 103.767 422.06Z" fill="#8DA5C6"/>
</g>
<defs>
<clipPath id="clip0_2_1043">
<rect width="393" height="486" fill="white"/>
</clipPath>
</defs>
</svg>
